<svg width="199" height="44" viewBox="0 0 199 44" fill="none" xmlns="http://www.w3.org/2000/svg">
<path d="M64.587 11.4245C64.587 12.0825 64.4645 12.751 64.2195 13.43C63.9745 14.109 63.6 14.739 63.096 15.32C62.599 15.894 61.969 16.356 61.206 16.706C60.443 17.056 59.547 17.231 58.518 17.231C57.125 17.231 55.935 16.8915 54.948 16.2125C53.968 15.5265 53.219 14.585 52.701 13.388C52.19 12.191 51.9345 10.8155 51.9345 9.2615C51.9345 7.7005 52.19 6.3215 52.701 5.1245C53.219 3.9275 53.968 2.9895 54.948 2.3105C55.935 1.6315 57.125 1.292 58.518 1.292C59.673 1.292 60.66 1.5125 61.479 1.9535C62.298 2.3945 62.9525 2.9615 63.4425 3.6545C63.9325 4.3475 64.2615 5.072 64.4295 5.828C64.5345 6.269 64.587 6.689 64.587 7.088H61.8045C61.8045 6.885 61.7905 6.675 61.7625 6.458C61.6855 5.926 61.507 5.443 61.227 5.009C60.954 4.568 60.59 4.2215 60.135 3.9695C59.68 3.7105 59.141 3.581 58.518 3.581C57.776 3.581 57.1215 3.7875 56.5545 4.2005C55.9945 4.6135 55.5535 5.24 55.2315 6.08C54.9095 6.92 54.7485 7.9805 54.7485 9.2615C54.7485 10.5285 54.9095 11.5855 55.2315 12.4325C55.5535 13.2795 55.9945 13.913 56.5545 14.333C57.1215 14.753 57.776 14.963 58.518 14.963C59.05 14.963 59.519 14.865 59.925 14.669C60.331 14.473 60.674 14.2105 60.954 13.8815C61.234 13.5455 61.444 13.1675 61.584 12.7475C61.731 12.3275 61.8045 11.8865 61.8045 11.4245H64.587ZM67.9345 12.317V10.3535H75.736L75.421 10.8785C75.421 10.8365 75.421 10.791 75.421 10.742C75.421 10.686 75.421 10.6405 75.421 10.6055C75.421 10.1225 75.3125 9.671 75.0955 9.251C74.8785 8.824 74.5495 8.481 74.1085 8.222C73.6675 7.956 73.1075 7.823 72.4285 7.823C71.7565 7.823 71.172 7.9665 70.675 8.2535C70.185 8.5335 69.8035 8.9395 69.5305 9.4715C69.2645 10.0035 69.1315 10.6405 69.1315 11.3825C69.1315 12.1455 69.261 12.8035 69.52 13.3565C69.779 13.9025 70.157 14.3225 70.654 14.6165C71.158 14.9035 71.7705 15.047 72.4915 15.047C72.9815 15.047 73.405 15.0015 73.762 14.9105C74.119 14.8195 74.4095 14.697 74.6335 14.543C74.8645 14.382 75.036 14.2105 75.148 14.0285C75.267 13.8465 75.337 13.6645 75.358 13.4825H78.109C78.067 13.9515 77.9095 14.41 77.6365 14.858C77.3705 15.299 76.996 15.7015 76.513 16.0655C76.03 16.4225 75.442 16.7095 74.749 16.9265C74.063 17.1365 73.279 17.2415 72.397 17.2415C71.2 17.2415 70.1535 16.9965 69.2575 16.5065C68.3615 16.0165 67.6615 15.334 67.1575 14.459C66.6605 13.584 66.412 12.583 66.412 11.456C66.412 10.301 66.664 9.2895 67.168 8.4215C67.679 7.5535 68.386 6.878 69.289 6.395C70.192 5.905 71.228 5.66 72.397 5.66C73.601 5.66 74.6405 5.905 75.5155 6.395C76.3975 6.885 77.0765 7.5675 77.5525 8.4425C78.0285 9.3105 78.2665 10.322 78.2665 11.477C78.2665 11.624 78.263 11.7815 78.256 11.9495C78.249 12.1175 78.2385 12.24 78.2245 12.317H67.9345ZM80.5432 17V5.849H83.3047V9.5555L82.6642 9.1985C82.7342 8.7155 82.8637 8.2605 83.0527 7.8335C83.2417 7.3995 83.4937 7.0215 83.8087 6.6995C84.1237 6.3705 84.5052 6.115 84.9532 5.933C85.4012 5.751 85.9122 5.66 86.4862 5.66C86.9412 5.66 87.2982 5.695 87.5572 5.765C87.8232 5.828 87.9877 5.8805 88.0507 5.9225L87.5467 8.453C87.4767 8.404 87.3332 8.3445 87.1162 8.2745C86.9062 8.1975 86.6227 8.159 86.2657 8.159C85.6987 8.159 85.2227 8.257 84.8377 8.453C84.4597 8.642 84.1587 8.901 83.9347 9.23C83.7107 9.552 83.5497 9.909 83.4517 10.301C83.3537 10.686 83.3047 11.071 83.3047 11.456V17H80.5432ZM94.9163 17.21C94.5173 17.21 94.1113 17.1715 93.6983 17.0945C93.2853 17.0175 92.9073 16.874 92.5643 16.664C92.2213 16.454 91.9448 16.146 91.7348 15.74C91.5248 15.334 91.4198 14.7985 91.4198 14.1335C91.4198 13.9795 91.4198 13.8255 91.4198 13.6715C91.4198 13.5105 91.4198 13.346 91.4198 13.178V8.054H88.7843V5.849H89.8553C90.2193 5.849 90.5063 5.835 90.7163 5.807C90.9263 5.772 91.0802 5.695 91.1782 5.576C91.2763 5.457 91.3393 5.2715 91.3673 5.0195C91.4023 4.7605 91.4198 4.4035 91.4198 3.9485V2.174H94.1917V5.849H97.5098V8.054H94.1917V12.527C94.1917 12.66 94.1917 12.793 94.1917 12.926C94.1917 13.052 94.1917 13.1745 94.1917 13.2935C94.1917 13.8115 94.2548 14.228 94.3808 14.543C94.5068 14.858 94.8043 15.0155 95.2733 15.0155C95.4973 15.0155 95.7073 14.9945 95.9033 14.9525C96.1063 14.9105 96.2568 14.8685 96.3548 14.8265V16.9895C96.2218 17.0385 96.0293 17.0875 95.7773 17.1365C95.5253 17.1855 95.2383 17.21 94.9163 17.21ZM99.5425 17V5.849H102.272V17H99.5425ZM100.918 3.791C100.47 3.791 100.078 3.672 99.742 3.434C99.413 3.189 99.2485 2.8495 99.2485 2.4155C99.2485 1.9885 99.413 1.656 99.742 1.418C100.078 1.18 100.47 1.061 100.918 1.061C101.359 1.061 101.744 1.18 102.073 1.418C102.402 1.656 102.566 1.9885 102.566 2.4155C102.566 2.8495 102.402 3.189 102.073 3.434C101.744 3.672 101.359 3.791 100.918 3.791ZM106.364 17V8.054H104.001V5.849H106.364V4.8515C106.364 4.2005 106.451 3.63 106.626 3.14C106.801 2.643 107.039 2.223 107.34 1.88C107.641 1.537 107.984 1.2605 108.369 1.0505C108.761 0.833499 109.178 0.675999 109.619 0.577999C110.067 0.479999 110.511 0.430999 110.952 0.430999C111.372 0.430999 111.691 0.455499 111.908 0.504499C112.132 0.553499 112.282 0.595499 112.359 0.6305V2.8565C112.275 2.8285 112.128 2.797 111.918 2.762C111.715 2.72 111.495 2.699 111.257 2.699C110.83 2.699 110.476 2.762 110.196 2.888C109.916 3.007 109.699 3.175 109.545 3.392C109.391 3.609 109.283 3.861 109.22 4.148C109.157 4.428 109.125 4.736 109.125 5.072V5.849H112.212V8.054H109.125V17H106.364ZM113.955 17V5.849H116.685V17H113.955ZM115.331 3.791C114.883 3.791 114.491 3.672 114.155 3.434C113.826 3.189 113.661 2.8495 113.661 2.4155C113.661 1.9885 113.826 1.656 114.155 1.418C114.491 1.18 114.883 1.061 115.331 1.061C115.772 1.061 116.157 1.18 116.486 1.418C116.815 1.656 116.979 1.9885 116.979 2.4155C116.979 2.8495 116.815 3.189 116.486 3.434C116.157 3.672 115.772 3.791 115.331 3.791ZM124.918 17.231C123.742 17.231 122.703 16.9895 121.8 16.5065C120.897 16.0235 120.19 15.3445 119.679 14.4695C119.168 13.5945 118.912 12.569 118.912 11.393C118.912 10.224 119.168 9.209 119.679 8.348C120.19 7.487 120.897 6.8255 121.8 6.3635C122.703 5.8945 123.742 5.66 124.918 5.66C125.8 5.66 126.581 5.7895 127.26 6.0485C127.939 6.3075 128.509 6.654 128.971 7.088C129.44 7.515 129.797 7.9875 130.042 8.5055C130.287 9.0165 130.41 9.5275 130.41 10.0385C130.41 10.0525 130.41 10.0665 130.41 10.0805C130.41 10.0945 130.41 10.1085 130.41 10.1225H127.669C127.669 10.0875 127.666 10.049 127.659 10.007C127.652 9.965 127.645 9.923 127.638 9.881C127.582 9.524 127.438 9.202 127.207 8.915C126.976 8.621 126.668 8.3865 126.283 8.2115C125.898 8.0365 125.433 7.949 124.887 7.949C124.306 7.949 123.774 8.0785 123.291 8.3375C122.815 8.5895 122.433 8.971 122.146 9.482C121.866 9.993 121.726 10.63 121.726 11.393C121.726 12.149 121.866 12.793 122.146 13.325C122.426 13.85 122.804 14.2525 123.28 14.5325C123.763 14.8055 124.299 14.942 124.887 14.942C125.51 14.942 126.017 14.8475 126.409 14.6585C126.808 14.4625 127.109 14.2035 127.312 13.8815C127.515 13.5525 127.631 13.1955 127.659 12.8105H130.41C130.41 13.3285 130.291 13.85 130.053 14.375C129.815 14.893 129.465 15.369 129.003 15.803C128.541 16.237 127.967 16.5835 127.281 16.8425C126.602 17.1015 125.814 17.231 124.918 17.231ZM136.517 17.231C135.684 17.231 134.952 17.1015 134.322 16.8425C133.692 16.5765 133.199 16.195 132.842 15.698C132.485 15.201 132.306 14.6025 132.306 13.9025C132.306 13.1395 132.513 12.513 132.926 12.023C133.346 11.526 133.909 11.1445 134.616 10.8785C135.323 10.6055 136.107 10.4305 136.968 10.3535C138.242 10.2275 139.131 10.1085 139.635 9.9965C140.146 9.8775 140.402 9.6885 140.402 9.4295C140.402 9.4225 140.402 9.419 140.402 9.419C140.402 9.412 140.402 9.4085 140.402 9.4085C140.402 8.9185 140.181 8.5405 139.74 8.2745C139.299 8.0085 138.676 7.8755 137.871 7.8755C137.024 7.8755 136.373 8.026 135.918 8.327C135.47 8.621 135.246 9.09 135.246 9.734H132.516C132.516 8.859 132.747 8.1205 133.209 7.5185C133.678 6.9095 134.319 6.4475 135.131 6.1325C135.943 5.8175 136.863 5.66 137.892 5.66C138.851 5.66 139.73 5.8035 140.528 6.0905C141.326 6.3775 141.966 6.8115 142.449 7.3925C142.932 7.9735 143.174 8.698 143.174 9.566C143.174 9.713 143.174 9.86 143.174 10.007C143.174 10.154 143.174 10.301 143.174 10.448V14.648C143.174 14.914 143.181 15.1765 143.195 15.4355C143.216 15.6875 143.254 15.915 143.31 16.118C143.38 16.342 143.464 16.531 143.562 16.685C143.66 16.839 143.737 16.944 143.793 17H141.063C141.014 16.951 140.944 16.8565 140.853 16.7165C140.769 16.5695 140.692 16.4015 140.622 16.2125C140.552 16.0025 140.5 15.7785 140.465 15.5405C140.43 15.2955 140.412 15.026 140.412 14.732L140.958 15.11C140.748 15.537 140.426 15.9115 139.992 16.2335C139.565 16.5485 139.054 16.7935 138.459 16.9685C137.864 17.1435 137.217 17.231 136.517 17.231ZM137.189 15.0575C137.763 15.0575 138.295 14.9595 138.785 14.7635C139.275 14.5675 139.67 14.2665 139.971 13.8605C140.272 13.4475 140.423 12.919 140.423 12.275V10.784L141.095 11.54C140.647 11.708 140.108 11.848 139.478 11.96C138.848 12.065 138.211 12.149 137.567 12.212C136.741 12.289 136.118 12.4325 135.698 12.6425C135.285 12.8525 135.078 13.1955 135.078 13.6715C135.078 14.1335 135.253 14.48 135.603 14.711C135.953 14.942 136.482 15.0575 137.189 15.0575ZM150.595 17.21C150.196 17.21 149.79 17.1715 149.377 17.0945C148.964 17.0175 148.586 16.874 148.243 16.664C147.9 16.454 147.623 16.146 147.413 15.74C147.203 15.334 147.098 14.7985 147.098 14.1335C147.098 13.9795 147.098 13.8255 147.098 13.6715C147.098 13.5105 147.098 13.346 147.098 13.178V8.054H144.463V5.849H145.534C145.898 5.849 146.185 5.835 146.395 5.807C146.605 5.772 146.759 5.695 146.857 5.576C146.955 5.457 147.018 5.2715 147.046 5.0195C147.081 4.7605 147.098 4.4035 147.098 3.9485V2.174H149.87V5.849H153.188V8.054H149.87V12.527C149.87 12.66 149.87 12.793 149.87 12.926C149.87 13.052 149.87 13.1745 149.87 13.2935C149.87 13.8115 149.933 14.228 150.059 14.543C150.185 14.858 150.483 15.0155 150.952 15.0155C151.176 15.0155 151.386 14.9945 151.582 14.9525C151.785 14.9105 151.935 14.8685 152.033 14.8265V16.9895C151.9 17.0385 151.708 17.0875 151.456 17.1365C151.204 17.1855 150.917 17.21 150.595 17.21ZM155.221 17V5.849H157.951V17H155.221ZM156.597 3.791C156.149 3.791 155.757 3.672 155.421 3.434C155.092 3.189 154.927 2.8495 154.927 2.4155C154.927 1.9885 155.092 1.656 155.421 1.418C155.757 1.18 156.149 1.061 156.597 1.061C157.038 1.061 157.423 1.18 157.752 1.418C158.081 1.656 158.245 1.9885 158.245 2.4155C158.245 2.8495 158.081 3.189 157.752 3.434C157.423 3.672 157.038 3.791 156.597 3.791ZM166.169 17.2205C164.993 17.2205 163.957 16.9755 163.061 16.4855C162.165 15.9885 161.461 15.3025 160.95 14.4275C160.446 13.5525 160.194 12.5515 160.194 11.4245C160.194 10.2905 160.446 9.293 160.95 8.432C161.461 7.564 162.165 6.885 163.061 6.395C163.957 5.905 164.993 5.66 166.169 5.66C167.345 5.66 168.381 5.905 169.277 6.395C170.173 6.885 170.873 7.564 171.377 8.432C171.888 9.293 172.143 10.2905 172.143 11.4245C172.143 12.5515 171.888 13.5525 171.377 14.4275C170.873 15.3025 170.173 15.9885 169.277 16.4855C168.381 16.9755 167.345 17.2205 166.169 17.2205ZM166.169 14.963C166.806 14.963 167.362 14.816 167.838 14.522C168.314 14.228 168.685 13.8185 168.951 13.2935C169.217 12.7615 169.35 12.1385 169.35 11.4245C169.35 10.7105 169.217 10.0945 168.951 9.5765C168.685 9.0515 168.314 8.6455 167.838 8.3585C167.362 8.0715 166.806 7.928 166.169 7.928C165.539 7.928 164.982 8.0715 164.499 8.3585C164.023 8.6455 163.652 9.0515 163.386 9.5765C163.12 10.0945 162.987 10.7105 162.987 11.4245C162.987 12.1385 163.12 12.7615 163.386 13.2935C163.652 13.8185 164.023 14.228 164.499 14.522C164.982 14.816 165.539 14.963 166.169 14.963ZM182.313 17V12.0545C182.313 11.7745 182.313 11.5295 182.313 11.3195C182.313 11.1025 182.313 10.9065 182.313 10.7315C182.313 10.2275 182.24 9.776 182.093 9.377C181.953 8.971 181.708 8.6525 181.358 8.4215C181.015 8.1905 180.539 8.075 179.93 8.075C179.398 8.075 178.925 8.2045 178.512 8.4635C178.099 8.7155 177.774 9.0655 177.536 9.5135C177.305 9.9545 177.189 10.4655 177.189 11.0465L176.255 10.469C176.255 9.538 176.465 8.712 176.885 7.991C177.312 7.263 177.882 6.6925 178.596 6.2795C179.31 5.8665 180.101 5.66 180.969 5.66C181.865 5.66 182.618 5.835 183.227 6.185C183.843 6.535 184.305 7.032 184.613 7.676C184.928 8.32 185.085 9.076 185.085 9.944C185.085 10.28 185.085 10.658 185.085 11.078C185.085 11.498 185.085 11.911 185.085 12.317V17H182.313ZM174.428 17V5.849H177.189V17H174.428ZM192.242 17.231C191.577 17.231 190.944 17.1575 190.342 17.0105C189.747 16.8635 189.215 16.643 188.746 16.349C188.284 16.055 187.916 15.691 187.643 15.257C187.377 14.816 187.244 14.3085 187.244 13.7345C187.244 13.6925 187.244 13.6505 187.244 13.6085C187.244 13.5665 187.244 13.528 187.244 13.493H189.995C189.995 13.528 189.995 13.5595 189.995 13.5875C189.995 13.6085 189.995 13.64 189.995 13.682C189.995 14.137 190.202 14.48 190.615 14.711C191.035 14.935 191.605 15.047 192.326 15.047C192.718 15.047 193.086 15.005 193.429 14.921C193.779 14.837 194.059 14.7075 194.269 14.5325C194.486 14.3575 194.594 14.1335 194.594 13.8605C194.594 13.4195 194.367 13.1045 193.912 12.9155C193.464 12.7265 192.757 12.555 191.791 12.401C191.259 12.31 190.734 12.1875 190.216 12.0335C189.698 11.8795 189.225 11.673 188.798 11.414C188.378 11.155 188.039 10.833 187.78 10.448C187.528 10.063 187.402 9.594 187.402 9.041C187.402 8.306 187.619 7.69 188.053 7.193C188.494 6.689 189.082 6.3075 189.817 6.0485C190.559 5.7895 191.374 5.66 192.263 5.66C193.117 5.66 193.912 5.8 194.647 6.08C195.382 6.36 195.973 6.7625 196.421 7.2875C196.876 7.8125 197.104 8.446 197.104 9.188C197.104 9.216 197.104 9.2475 197.104 9.2825C197.104 9.3105 197.104 9.335 197.104 9.356H194.374C194.374 9.335 194.374 9.314 194.374 9.293C194.374 9.272 194.374 9.2475 194.374 9.2195C194.374 8.8975 194.272 8.635 194.069 8.432C193.866 8.229 193.604 8.0785 193.282 7.9805C192.96 7.8825 192.62 7.8335 192.263 7.8335C191.948 7.8335 191.623 7.8685 191.287 7.9385C190.951 8.0015 190.671 8.117 190.447 8.285C190.223 8.446 190.111 8.6735 190.111 8.9675C190.111 9.2475 190.226 9.475 190.457 9.65C190.688 9.825 191.01 9.972 191.423 10.091C191.836 10.203 192.312 10.3045 192.851 10.3955C193.362 10.4795 193.877 10.595 194.395 10.742C194.92 10.889 195.399 11.085 195.833 11.33C196.267 11.575 196.617 11.897 196.883 12.296C197.156 12.688 197.293 13.1745 197.293 13.7555C197.293 14.3715 197.153 14.8965 196.873 15.3305C196.593 15.7645 196.211 16.125 195.728 16.412C195.252 16.692 194.713 16.8985 194.111 17.0315C193.509 17.1645 192.886 17.231 192.242 17.231ZM63.3375 23.5125H68.0415V39H65.406V25.2765L65.469 25.2975L62.1405 39H58.4445L55.074 25.287L55.137 25.2555V39H52.5015V23.5125H57.2055L60.345 37.488H60.1665L63.3375 23.5125ZM74.7471 39.231C73.9141 39.231 73.1826 39.1015 72.5526 38.8425C71.9226 38.5765 71.4291 38.195 71.0721 37.698C70.7151 37.201 70.5366 36.6025 70.5366 35.9025C70.5366 35.1395 70.7431 34.513 71.1561 34.023C71.5761 33.526 72.1396 33.1445 72.8466 32.8785C73.5536 32.6055 74.3376 32.4305 75.1986 32.3535C76.4726 32.2275 77.3616 32.1085 77.8656 31.9965C78.3766 31.8775 78.6321 31.6885 78.6321 31.4295C78.6321 31.4225 78.6321 31.419 78.6321 31.419C78.6321 31.412 78.6321 31.4085 78.6321 31.4085C78.6321 30.9185 78.4116 30.5405 77.9706 30.2745C77.5296 30.0085 76.9066 29.8755 76.1016 29.8755C75.2546 29.8755 74.6036 30.026 74.1486 30.327C73.7006 30.621 73.4766 31.09 73.4766 31.734H70.7466C70.7466 30.859 70.9776 30.1205 71.4396 29.5185C71.9086 28.9095 72.5491 28.4475 73.3611 28.1325C74.1731 27.8175 75.0936 27.66 76.1226 27.66C77.0816 27.66 77.9601 27.8035 78.7581 28.0905C79.5561 28.3775 80.1966 28.8115 80.6796 29.3925C81.1626 29.9735 81.4041 30.698 81.4041 31.566C81.4041 31.713 81.4041 31.86 81.4041 32.007C81.4041 32.154 81.4041 32.301 81.4041 32.448V36.648C81.4041 36.914 81.4111 37.1765 81.4251 37.4355C81.4461 37.6875 81.4846 37.915 81.5406 38.118C81.6106 38.342 81.6946 38.531 81.7926 38.685C81.8906 38.839 81.9676 38.944 82.0236 39H79.2936C79.2446 38.951 79.1746 38.8565 79.0836 38.7165C78.9996 38.5695 78.9226 38.4015 78.8526 38.2125C78.7826 38.0025 78.7301 37.7785 78.6951 37.5405C78.6601 37.2955 78.6426 37.026 78.6426 36.732L79.1886 37.11C78.9786 37.537 78.6566 37.9115 78.2226 38.2335C77.7956 38.5485 77.2846 38.7935 76.6896 38.9685C76.0946 39.1435 75.4471 39.231 74.7471 39.231ZM75.4191 37.0575C75.9931 37.0575 76.5251 36.9595 77.0151 36.7635C77.5051 36.5675 77.9006 36.2665 78.2016 35.8605C78.5026 35.4475 78.6531 34.919 78.6531 34.275V32.784L79.3251 33.54C78.8771 33.708 78.3381 33.848 77.7081 33.96C77.0781 34.065 76.4411 34.149 75.7971 34.212C74.9711 34.289 74.3481 34.4325 73.9281 34.6425C73.5151 34.8525 73.3086 35.1955 73.3086 35.6715C73.3086 36.1335 73.4836 36.48 73.8336 36.711C74.1836 36.942 74.7121 37.0575 75.4191 37.0575ZM88.4725 39.231C87.8075 39.231 87.174 39.1575 86.572 39.0105C85.977 38.8635 85.445 38.643 84.976 38.349C84.514 38.055 84.1465 37.691 83.8735 37.257C83.6075 36.816 83.4745 36.3085 83.4745 35.7345C83.4745 35.6925 83.4745 35.6505 83.4745 35.6085C83.4745 35.5665 83.4745 35.528 83.4745 35.493H86.2255C86.2255 35.528 86.2255 35.5595 86.2255 35.5875C86.2255 35.6085 86.2255 35.64 86.2255 35.682C86.2255 36.137 86.432 36.48 86.845 36.711C87.265 36.935 87.8355 37.047 88.5565 37.047C88.9485 37.047 89.316 37.005 89.659 36.921C90.009 36.837 90.289 36.7075 90.499 36.5325C90.716 36.3575 90.8245 36.1335 90.8245 35.8605C90.8245 35.4195 90.597 35.1045 90.142 34.9155C89.694 34.7265 88.987 34.555 88.021 34.401C87.489 34.31 86.964 34.1875 86.446 34.0335C85.928 33.8795 85.4555 33.673 85.0285 33.414C84.6085 33.155 84.269 32.833 84.01 32.448C83.758 32.063 83.632 31.594 83.632 31.041C83.632 30.306 83.849 29.69 84.283 29.193C84.724 28.689 85.312 28.3075 86.047 28.0485C86.789 27.7895 87.6045 27.66 88.4935 27.66C89.3475 27.66 90.142 27.8 90.877 28.08C91.612 28.36 92.2035 28.7625 92.6515 29.2875C93.1065 29.8125 93.334 30.446 93.334 31.188C93.334 31.216 93.334 31.2475 93.334 31.2825C93.334 31.3105 93.334 31.335 93.334 31.356H90.604C90.604 31.335 90.604 31.314 90.604 31.293C90.604 31.272 90.604 31.2475 90.604 31.2195C90.604 30.8975 90.5025 30.635 90.2995 30.432C90.0965 30.229 89.834 30.0785 89.512 29.9805C89.19 29.8825 88.8505 29.8335 88.4935 29.8335C88.1785 29.8335 87.853 29.8685 87.517 29.9385C87.181 30.0015 86.901 30.117 86.677 30.285C86.453 30.446 86.341 30.6735 86.341 30.9675C86.341 31.2475 86.4565 31.475 86.6875 31.65C86.9185 31.825 87.2405 31.972 87.6535 32.091C88.0665 32.203 88.5425 32.3045 89.0815 32.3955C89.5925 32.4795 90.107 32.595 90.625 32.742C91.15 32.889 91.6295 33.085 92.0635 33.33C92.4975 33.575 92.8475 33.897 93.1135 34.296C93.3865 34.688 93.523 35.1745 93.523 35.7555C93.523 36.3715 93.383 36.8965 93.103 37.3305C92.823 37.7645 92.4415 38.125 91.9585 38.412C91.4825 38.692 90.9435 38.8985 90.3415 39.0315C89.7395 39.1645 89.1165 39.231 88.4725 39.231ZM100.781 39.21C100.382 39.21 99.9765 39.1715 99.5635 39.0945C99.1505 39.0175 98.7725 38.874 98.4295 38.664C98.0865 38.454 97.81 38.146 97.6 37.74C97.39 37.334 97.285 36.7985 97.285 36.1335C97.285 35.9795 97.285 35.8255 97.285 35.6715C97.285 35.5105 97.285 35.346 97.285 35.178V30.054H94.6495V27.849H95.7205C96.0845 27.849 96.3715 27.835 96.5815 27.807C96.7915 27.772 96.9455 27.695 97.0435 27.576C97.1415 27.457 97.2045 27.2715 97.2325 27.0195C97.2675 26.7605 97.285 26.4035 97.285 25.9485V24.174H100.057V27.849H103.375V30.054H100.057V34.527C100.057 34.66 100.057 34.793 100.057 34.926C100.057 35.052 100.057 35.1745 100.057 35.2935C100.057 35.8115 100.12 36.228 100.246 36.543C100.372 36.858 100.669 37.0155 101.138 37.0155C101.362 37.0155 101.572 36.9945 101.768 36.9525C101.971 36.9105 102.122 36.8685 102.22 36.8265V38.9895C102.087 39.0385 101.894 39.0875 101.642 39.1365C101.39 39.1855 101.103 39.21 100.781 39.21ZM106.182 34.317V32.3535H113.983L113.668 32.8785C113.668 32.8365 113.668 32.791 113.668 32.742C113.668 32.686 113.668 32.6405 113.668 32.6055C113.668 32.1225 113.56 31.671 113.343 31.251C113.126 30.824 112.797 30.481 112.356 30.222C111.915 29.956 111.355 29.823 110.676 29.823C110.004 29.823 109.419 29.9665 108.922 30.2535C108.432 30.5335 108.051 30.9395 107.778 31.4715C107.512 32.0035 107.379 32.6405 107.379 33.3825C107.379 34.1455 107.508 34.8035 107.767 35.3565C108.026 35.9025 108.404 36.3225 108.901 36.6165C109.405 36.9035 110.018 37.047 110.739 37.047C111.229 37.047 111.652 37.0015 112.009 36.9105C112.366 36.8195 112.657 36.697 112.881 36.543C113.112 36.382 113.283 36.2105 113.395 36.0285C113.514 35.8465 113.584 35.6645 113.605 35.4825H116.356C116.314 35.9515 116.157 36.41 115.884 36.858C115.618 37.299 115.243 37.7015 114.76 38.0655C114.277 38.4225 113.689 38.7095 112.996 38.9265C112.31 39.1365 111.526 39.2415 110.644 39.2415C109.447 39.2415 108.401 38.9965 107.505 38.5065C106.609 38.0165 105.909 37.334 105.405 36.459C104.908 35.584 104.659 34.583 104.659 33.456C104.659 32.301 104.911 31.2895 105.415 30.4215C105.926 29.5535 106.633 28.878 107.536 28.395C108.439 27.905 109.475 27.66 110.644 27.66C111.848 27.66 112.888 27.905 113.763 28.395C114.645 28.885 115.324 29.5675 115.8 30.4425C116.276 31.3105 116.514 32.322 116.514 33.477C116.514 33.624 116.51 33.7815 116.503 33.9495C116.496 34.1175 116.486 34.24 116.472 34.317H106.182ZM118.79 39V27.849H121.552V31.5555L120.911 31.1985C120.981 30.7155 121.111 30.2605 121.3 29.8335C121.489 29.3995 121.741 29.0215 122.056 28.6995C122.371 28.3705 122.752 28.115 123.2 27.933C123.648 27.751 124.159 27.66 124.733 27.66C125.188 27.66 125.545 27.695 125.804 27.765C126.07 27.828 126.235 27.8805 126.298 27.9225L125.794 30.453C125.724 30.404 125.58 30.3445 125.363 30.2745C125.153 30.1975 124.87 30.159 124.513 30.159C123.946 30.159 123.47 30.257 123.085 30.453C122.707 30.642 122.406 30.901 122.182 31.23C121.958 31.552 121.797 31.909 121.699 32.301C121.601 32.686 121.552 33.071 121.552 33.456V39H118.79Z" fill="#0E2B5C"/>
<path d="M39 8.73905C39 6.95582 36.8428 6.06413 35.5837 7.32692L25.7802 17.1593C25.002 17.9399 25.002 19.203 25.7802 19.9836L35.5837 29.8159C36.8428 31.0787 39 30.187 39 28.4038V8.73905Z" fill="#0E2B5C"/>
<path d="M19.2699 0C21.0502 0 21.9432 2.15135 20.6861 3.41213L6.97941 17.1593C6.20114 17.9399 6.20114 19.203 6.97941 19.9836L22.5378 35.5879C23.7949 36.8486 22.9019 39 21.1215 39H2C0.895429 39 0 38.1046 0 37V2C0 0.89543 0.895431 0 2 0H19.2699Z" fill="#0E2B5C"/>
</svg>
