<svg width="98" height="43" viewBox="0 0 98 43" fill="none" xmlns="http://www.w3.org/2000/svg">
<path d="M0 2C0 0.895432 0.895431 0 2 0H96C97.1046 0 98 0.895431 98 2V41C98 42.1046 97.1046 43 96 43H2C0.89543 43 0 42.1046 0 41V2Z" fill="#311B92"/>
<path d="M0 32H98V41C98 42.1046 97.1046 43 96 43H2C0.89543 43 0 42.1046 0 41V32Z" fill="#21E6BB"/>
<path d="M71 37C71 35.8954 71.8954 35 73 35H87C88.1046 35 89 35.8954 89 37V38C89 39.1046 88.1046 40 87 40H73C71.8954 40 71 39.1046 71 38V37Z" fill="#311B92"/>
<path d="M80 35H87C88.1046 35 89 35.8954 89 37V38C89 39.1046 88.1046 40 87 40H80V35Z" fill="white"/>
<path d="M9.323 8.3V23H11.759V17.435H15.224C17.891 17.435 19.907 15.65 19.907 12.878C19.907 10.085 17.954 8.3 15.224 8.3H9.323ZM11.759 10.505H14.972C16.505 10.505 17.471 11.408 17.471 12.878C17.471 14.327 16.505 15.23 14.972 15.23H11.759V10.505Z" fill="white"/>
<path d="M21.0485 15.335L23.1905 16.049C23.4005 14.978 24.1355 14.201 25.5845 14.201C27.0335 14.201 27.7265 15.02 27.7265 16.133V16.763H24.6605C22.3505 16.763 20.6915 17.855 20.6915 19.997C20.6915 22.097 22.3505 23.294 24.4925 23.294C26.4665 23.294 27.2015 22.265 27.4955 21.698H27.7685V23H29.9735V16.301C29.9735 13.76 28.2935 12.332 25.6055 12.332C22.9385 12.332 21.5525 13.718 21.0485 15.335ZM23.0015 19.934C23.0015 19.073 23.6945 18.548 24.8075 18.548H27.7265V18.737C27.7265 20.375 26.5715 21.404 24.9335 21.404C23.6945 21.404 23.0015 20.816 23.0015 19.934Z" fill="white"/>
<path d="M32.4348 12.647V23H34.7238V17.687C34.7238 15.545 35.8368 14.348 37.5588 14.348C39.0918 14.348 39.9948 15.167 39.9948 16.91V23H42.3048V16.784C42.3048 14.138 40.6248 12.458 38.2518 12.458C36.2778 12.458 35.3538 13.34 34.8918 14.243H34.6818V12.647H32.4348Z" fill="white"/>
<path d="M44.5915 15.335L46.7335 16.049C46.9435 14.978 47.6785 14.201 49.1275 14.201C50.5765 14.201 51.2695 15.02 51.2695 16.133V16.763H48.2035C45.8935 16.763 44.2345 17.855 44.2345 19.997C44.2345 22.097 45.8935 23.294 48.0355 23.294C50.0095 23.294 50.7445 22.265 51.0385 21.698H51.3115V23H53.5165V16.301C53.5165 13.76 51.8365 12.332 49.1485 12.332C46.4815 12.332 45.0955 13.718 44.5915 15.335ZM46.5445 19.934C46.5445 19.073 47.2375 18.548 48.3505 18.548H51.2695V18.737C51.2695 20.375 50.1145 21.404 48.4765 21.404C47.2375 21.404 46.5445 20.816 46.5445 19.934Z" fill="white"/>
<path d="M55.3268 17.813C55.3268 21.026 57.6998 23.294 60.7238 23.294C63.5798 23.294 65.2808 21.593 65.8268 19.325L63.5798 18.8C63.3488 20.249 62.4668 21.278 60.7448 21.278C58.9808 21.278 57.6368 19.955 57.6368 17.813C57.6368 15.692 58.9808 14.369 60.7448 14.369C62.4248 14.369 63.3488 15.419 63.5168 16.805L65.7428 16.343C65.3228 14.054 63.5588 12.353 60.7028 12.353C57.6998 12.353 55.3268 14.6 55.3268 17.813Z" fill="white"/>
<path d="M67.0367 17.771C67.0367 21.026 69.1787 23.294 72.3287 23.294C75.1847 23.294 76.4027 21.656 77.0117 20.564L75.1007 19.535C74.6807 20.438 73.9457 21.299 72.3707 21.299C70.7117 21.299 69.4937 20.144 69.4097 18.548H77.2637V17.603C77.2637 14.432 75.2477 12.332 72.2447 12.332C69.1997 12.332 67.0367 14.537 67.0367 17.771ZM69.4307 16.763C69.6197 15.314 70.6277 14.327 72.2237 14.327C73.7567 14.327 74.7857 15.272 74.9117 16.763H69.4307Z" fill="white"/>
<path d="M78.9216 15.335L81.0636 16.049C81.2736 14.978 82.0086 14.201 83.4576 14.201C84.9066 14.201 85.5996 15.02 85.5996 16.133V16.763H82.5336C80.2236 16.763 78.5646 17.855 78.5646 19.997C78.5646 22.097 80.2236 23.294 82.3656 23.294C84.3396 23.294 85.0746 22.265 85.3686 21.698H85.6416V23H87.8466V16.301C87.8466 13.76 86.1666 12.332 83.4786 12.332C80.8116 12.332 79.4256 13.718 78.9216 15.335ZM80.8746 19.934C80.8746 19.073 81.5676 18.548 82.6806 18.548H85.5996V18.737C85.5996 20.375 84.4446 21.404 82.8066 21.404C81.5676 21.404 80.8746 20.816 80.8746 19.934Z" fill="white"/>
<path d="M9.36552 35.6364H8.44293V40H9.36552V35.6364Z" fill="#311B92"/>
<path d="M10.8584 36.397H12.1943V40H13.1062V36.397H14.4422V35.6364H10.8584V36.397Z" fill="#311B92"/>
<path d="M21.2619 40L21.5857 39.005H23.1603L23.4842 40H24.4728L22.9685 35.6364H21.7796L20.2732 40H21.2619ZM21.8201 38.2848L22.357 36.6335H22.3911L22.9281 38.2848H21.8201Z" fill="#311B92"/>
<path d="M27.4449 40C28.7744 40 29.5798 39.1776 29.5798 37.8139C29.5798 36.4545 28.7744 35.6364 27.4577 35.6364H25.898V40H27.4449ZM26.8206 39.2095V36.4268H27.4087C28.2268 36.4268 28.6594 36.8445 28.6594 37.8139C28.6594 38.7876 28.2268 39.2095 27.4065 39.2095H26.8206Z" fill="#311B92"/>
<path d="M31.7055 35.6364H30.6806L32.187 40H33.376L34.8802 35.6364H33.8575L32.8007 38.9517H32.7602L31.7055 35.6364Z" fill="#311B92"/>
<path d="M37.228 35.6364H36.3054V40H37.228V35.6364Z" fill="#311B92"/>
<path d="M41.2543 36.8913H42.1385C42.1257 36.1136 41.4865 35.5767 40.5149 35.5767C39.5582 35.5767 38.8572 36.1051 38.8615 36.8977C38.8594 37.5412 39.3132 37.9098 40.0504 38.0866L40.5256 38.206C41.0007 38.321 41.2649 38.4574 41.267 38.7514C41.2649 39.071 40.9624 39.2884 40.4936 39.2884C40.0142 39.2884 39.669 39.0668 39.6392 38.63H38.7464C38.7699 39.5739 39.4453 40.0618 40.5043 40.0618C41.5696 40.0618 42.196 39.5526 42.1982 38.7536C42.196 38.027 41.6484 37.6413 40.8899 37.4709L40.4979 37.3771C40.1186 37.2898 39.8011 37.1491 39.8075 36.8359C39.8075 36.5547 40.0568 36.348 40.5085 36.348C40.9496 36.348 41.2202 36.5483 41.2543 36.8913Z" fill="#311B92"/>
<path d="M47.7287 37.8182C47.7287 36.3906 46.8423 35.5767 45.6853 35.5767C44.522 35.5767 43.642 36.3906 43.642 37.8182C43.642 39.2393 44.522 40.0597 45.6853 40.0597C46.8423 40.0597 47.7287 39.2457 47.7287 37.8182ZM46.7933 37.8182C46.7933 38.7429 46.3544 39.2436 45.6853 39.2436C45.0142 39.2436 44.5774 38.7429 44.5774 37.8182C44.5774 36.8935 45.0142 36.3928 45.6853 36.3928C46.3544 36.3928 46.7933 36.8935 46.7933 37.8182Z" fill="#311B92"/>
<path d="M49.3121 40H50.2347V38.4531H50.908L51.7347 40H52.7531L51.8263 38.304C52.3227 38.0909 52.5976 37.6584 52.5976 37.0618C52.5976 36.1946 52.0244 35.6364 51.0337 35.6364H49.3121V40ZM50.2347 37.7116V36.3906H50.8568C51.3895 36.3906 51.6473 36.6271 51.6473 37.0618C51.6473 37.4943 51.3895 37.7116 50.8611 37.7116H50.2347Z" fill="#311B92"/>
<path d="M53.7123 35.6364L55.3039 38.4574V40H56.2201V38.4574L57.8117 35.6364H56.7783L55.7833 37.5156H55.7407L54.7456 35.6364H53.7123Z" fill="#311B92"/>
</svg>
