<?xml version="1.0" standalone="no"?>
<!DOCTYPE svg PUBLIC "-//W3C//DTD SVG 20010904//EN"
 "http://www.w3.org/TR/2001/REC-SVG-20010904/DTD/svg10.dtd">
<svg version="1.0" xmlns="http://www.w3.org/2000/svg"
 width="400.000000pt" height="400.000000pt" viewBox="0 0 400.000000 400.000000"
 preserveAspectRatio="xMidYMid meet">
<metadata>
Created by potrace 1.11, written by Peter Selinger 2001-2013
</metadata>
<g transform="translate(0.000000,400.000000) scale(0.100000,-0.100000)"
fill="#000000" stroke="none">
<path d="M116 3980 c-50 -25 -93 -74 -106 -119 -15 -56 -14 -3672 2 -3723 15
-52 77 -114 127 -128 26 -7 621 -9 1877 -8 1779 3 1840 4 1877 22 21 10 52 39
70 65 l32 46 3 1840 c2 1394 0 1850 -9 1883 -15 54 -76 117 -126 131 -26 8
-627 11 -1873 11 -1797 -1 -1836 -1 -1874 -20z"/>
</g>
</svg>
