<svg width="1080" height="720" viewBox="0 0 1080 720" fill="none" xmlns="http://www.w3.org/2000/svg">
<rect width="1080" height="720" fill="url(#paint0_linear)"/>
<path d="M279.173 583.123C275.401 581.706 274.346 580.318 275.242 577.952C275.657 576.856 276.455 575.959 277.014 575.959C277.573 575.959 280.022 577.251 282.455 578.83C284.889 580.409 287.864 582.06 289.067 582.499L291.255 583.296L288.564 583.355C287.083 583.387 284.911 583.554 283.737 583.725C282.563 583.895 280.509 583.625 279.173 583.123V583.123ZM270.612 575.848C269.902 575.449 268.718 575.315 267.981 575.55C267.053 575.845 266.337 575.405 265.65 574.117C265.105 573.093 264.127 572.073 263.478 571.849C261.988 571.334 258.865 566.255 257.127 561.519C256.25 559.127 255.069 557.474 253.668 556.673C251.181 555.253 251.003 554.609 252.928 553.996C255.13 553.294 255.539 549.396 253.686 546.783C252.801 545.535 252.336 544.071 252.602 543.373C252.917 542.55 252.049 541.106 249.947 538.956C247.293 536.242 246.803 535.255 246.684 532.395C246.607 530.544 246.158 528.562 245.686 527.991C245.092 527.272 244.97 524.69 245.291 519.587C245.639 514.055 245.437 510.642 244.478 505.884C243.055 498.818 242.327 485.653 242.697 473.642C242.776 471.079 242.445 467.561 241.962 465.823C240.785 461.592 235.371 456.252 228.679 452.721C223.893 450.196 223.22 449.549 221.349 445.67C220.216 443.321 218.051 439.811 216.537 437.869C215.024 435.927 213.378 433.076 212.88 431.533C211.3 426.634 208.516 421.712 206.617 420.463C205.607 419.798 204.455 418.07 204.057 416.623C203.413 414.28 203.582 413.626 205.599 410.684C207.785 407.494 207.811 407.364 206.333 406.976C202.703 406.022 204.23 401.151 210.746 392.895C215.077 387.407 216.346 383.227 215.146 378.398C214.689 376.557 214.28 374.632 214.236 374.12C214.193 373.607 213.868 373.188 213.513 373.188C213.158 373.188 213.227 372.516 213.665 371.694C214.34 370.427 214.169 370.066 212.547 369.324C210.183 368.242 206.613 369.312 206.6 371.105C206.583 373.256 205.641 373.415 202.535 371.789C200.871 370.918 199.143 370.206 198.694 370.206C198.246 370.206 196.502 369.015 194.819 367.559C193.136 366.104 191.341 364.581 190.831 364.175C190.32 363.77 189.903 362.664 189.903 361.719C189.903 360.774 189.247 359.405 188.446 358.676C187.644 357.948 186.606 356.188 186.138 354.765C185.523 352.894 185.063 352.403 184.477 352.991C183.253 354.219 181.442 353.986 177.046 352.034C174.748 351.014 172.354 349.271 171.398 347.923C170.485 346.636 168.741 345.065 167.522 344.432C165.51 343.388 165.008 343.396 162.078 344.519L158.849 345.757L148.945 340.938C142.853 337.974 138.125 335.147 136.66 333.592C134.389 331.181 134.316 330.919 135.071 327.931C135.764 325.193 135.646 324.346 134.141 321.223C133.193 319.258 131.122 316.239 129.539 314.514C127.956 312.79 126.841 311.087 127.061 310.73C127.28 310.373 126.165 307.967 124.583 305.383C122.785 302.448 121.516 299.303 121.201 297.002C120.796 294.052 120.326 293.15 118.835 292.468C117.255 291.745 116.813 291.837 115.909 293.078C114.634 294.826 114.997 296.671 117.814 302.783C118.959 305.267 120.142 308.949 120.443 310.966C120.744 312.983 121.634 315.898 122.42 317.446C124.282 321.11 123.08 321.046 120.144 317.323C118.412 315.128 117.944 313.924 118.288 312.547C118.656 311.077 118.294 310.369 116.494 309.032C113.764 307.006 113.186 305.699 114.189 303.817C114.773 302.72 114.505 301.517 113.02 298.574C111.512 295.586 111.196 294.139 111.57 291.92C112.18 288.292 110.559 285.009 107.537 283.752C105.793 283.027 105.191 282.215 104.836 280.106C104.584 278.614 104.103 276.306 103.765 274.977C103.414 273.594 103.44 272.381 103.825 272.142C104.195 271.912 103.953 270.89 103.287 269.869C102.306 268.366 102.239 267.655 102.933 266.125C103.405 265.086 103.583 263.898 103.329 263.486C103.075 263.073 103.708 261.84 104.735 260.746C105.763 259.652 107.131 257.469 107.775 255.896C108.42 254.323 110.406 251.407 112.189 249.416C113.972 247.425 116.232 243.938 117.212 241.666C118.572 238.513 119.369 237.533 120.581 237.523C121.455 237.516 122.123 237.929 122.066 238.442C121.83 240.578 123.512 239.92 125.401 237.137C126.515 235.497 127.116 234.044 126.737 233.907C126.357 233.77 126.047 233.153 126.047 232.536C126.047 231.918 124.51 229.913 122.631 228.08C119.515 225.04 119.315 224.636 120.351 223.487C121.191 222.556 121.289 221.872 120.729 220.868C119.746 219.103 121.298 215.15 122.981 215.134C123.677 215.128 123.875 214.89 123.448 214.575C122.491 213.869 122.057 212.264 122.191 209.927C122.406 206.195 121.592 204.633 118.828 203.474C117.337 202.848 115.062 201.528 113.773 200.541C112.483 199.553 110.847 198.745 110.137 198.745C109.426 198.745 106.198 198.067 102.963 197.237C97.7616 195.904 96.8448 195.851 95.043 196.782C91.309 198.712 87.3529 199.498 85.7401 198.631C84.5304 197.981 83.2102 198.383 78.6066 200.801C75.4997 202.432 71.7882 204.021 70.3588 204.33C68.9295 204.639 66.1941 205.685 64.2801 206.653C58.8513 209.4 51.0744 212.168 48.9233 212.12C47.535 212.089 48.4736 211.478 52.1674 210.007C58.4449 207.508 64.8954 204.253 65.4921 203.284C66.2269 202.09 64.6318 201.662 62.7156 202.538C61.3048 203.183 60.4353 203.123 58.8073 202.267L56.7136 201.165L58.9912 199.983C61.5658 198.646 62.3758 197.134 61.7842 194.767C61.2113 192.475 64.3701 190.792 71.1751 189.761C74.8315 189.207 77.6112 188.286 79.4826 187.007C82.7827 184.751 82.2157 183.047 78.6577 184.526C76.9733 185.227 75.7464 185.234 73.2519 184.56C70.2204 183.741 70.1124 183.624 71.4684 182.628C73.7372 180.962 78.4297 179.961 81.5127 180.484C83.4636 180.814 85.0617 180.583 86.7017 179.731L89.0717 178.501L87.5116 176.834C86.6535 175.917 85.9515 174.969 85.9515 174.728C85.9515 174.036 90.4214 172.653 92.6565 172.653C93.7721 172.653 96.8303 171.842 99.4526 170.851C102.075 169.86 108.125 168.508 112.897 167.845C120.637 166.77 122.276 166.757 128.08 167.723C131.658 168.319 136.591 169.03 139.041 169.302C141.491 169.575 145.828 170.44 148.679 171.226C155.299 173.049 159.611 173.027 167.007 171.131C170.273 170.294 173.573 169.809 174.342 170.054C175.11 170.299 176.417 170.135 177.245 169.69C178.387 169.077 179.272 169.151 180.901 169.996C182.372 170.76 184.189 170.978 186.662 170.688C189.271 170.382 191.556 170.699 194.891 171.831C197.431 172.693 200.251 173.399 201.159 173.399C202.767 173.399 202.772 173.426 201.368 174.464C199.991 175.481 199.987 175.552 201.28 176.055C202.024 176.345 204.608 176.374 207.022 176.121C211.381 175.664 211.419 175.677 212.634 178.037L213.858 180.413L215.446 178.412C216.359 177.263 218.529 175.961 220.547 175.351C223.596 174.43 224.522 174.433 227.585 175.375C229.747 176.039 232.335 176.282 234.274 176C236.742 175.643 237.888 175.866 239.498 177.017C241.531 178.47 241.587 178.471 243.39 177.068C244.396 176.285 246.467 175.295 247.991 174.869C251.641 173.848 252.879 171.673 250.687 170.131C249.137 169.041 249.205 168.958 253.279 166.952C256.318 165.456 257.686 165.116 258.278 165.711C258.87 166.305 258.864 166.959 258.256 168.1C257.22 170.045 258.51 172.985 260.127 172.362C260.708 172.138 261.672 172.143 262.269 172.373C263.207 172.734 263.192 173.041 262.159 174.624C259.304 178.999 265.705 177.759 270.037 173.099C271.799 171.204 274.529 170.629 277.087 171.615C278.739 172.251 278.584 172.772 275.848 175.784C272.588 179.374 270.919 180.108 266.022 180.108C263.655 180.108 260.861 180.623 259.559 181.299C257.757 182.235 256.878 182.312 255.456 181.662C252.806 180.45 251.883 181.459 253.784 183.49L255.407 185.225L252.17 186.147C250.389 186.655 247.429 187.119 245.591 187.179C242.926 187.266 242.249 187.556 242.245 188.614C242.241 189.519 240.944 190.471 238.161 191.614C229.141 195.316 221.489 201.99 224.259 203.74C224.778 204.068 225.602 205.249 226.09 206.366C226.652 207.651 227.736 208.548 229.045 208.811C230.182 209.039 233.117 210.217 235.567 211.429C238.017 212.64 241.024 213.851 242.25 214.119C245.623 214.857 245.652 214.935 244.081 218.936C242.737 222.359 242.71 222.848 243.752 224.87C244.376 226.082 245.296 227.062 245.796 227.047C248.229 226.976 250.51 224.722 251.927 220.988C253.278 217.428 253.894 216.765 257.772 214.685C263.495 211.616 265.875 208.594 265.24 205.199C264.827 202.989 265.042 202.47 266.927 201.122C268.114 200.273 269.687 198.241 270.421 196.606C272.062 192.952 274.7 191.685 279.147 192.415C283.091 193.063 287.755 195.577 288.318 197.359C288.549 198.09 288.357 199.404 287.891 200.278C287.186 201.602 287.319 202.161 288.69 203.626L290.336 205.385L293.023 203.987C294.501 203.217 296.87 201.717 298.287 200.652L300.864 198.716L301.47 200.359C301.803 201.263 301.897 202.468 301.68 203.037C301.462 203.606 301.631 204.723 302.056 205.518C302.533 206.414 302.57 207.426 302.153 208.174C301.683 209.018 301.997 210.299 303.192 212.411C304.904 215.437 304.904 215.44 303.401 216.497C301.422 217.888 302.692 219.363 304.863 218.197C307.019 217.038 309.488 217.189 311.01 218.572C313.261 220.617 311.389 223.063 305.416 225.885C298.919 228.954 296.023 229.561 287.543 229.637C281.281 229.692 280.451 229.893 274.363 232.823C270.79 234.543 267.866 236.245 267.866 236.606C267.866 238.144 268.992 238.01 273.312 235.958C275.857 234.749 279.138 233.784 280.701 233.783C283.37 233.783 283.467 233.866 282.633 235.429C282.151 236.335 281.109 237.601 280.32 238.243C279.078 239.253 279.005 239.679 279.782 241.392C280.948 243.961 283.993 245.197 287.634 244.58L290.513 244.093L288.3 245.626C287.083 246.469 285.078 247.377 283.845 247.645C282.611 247.912 280.077 248.902 278.213 249.845C276.32 250.803 274.419 251.309 273.908 250.992C272.733 250.263 273.974 249.169 277.791 247.568C281.187 246.143 280.644 244.63 276.985 245.319C275.559 245.588 270.938 247.336 266.714 249.203C260.122 252.119 258.971 252.889 258.588 254.643C258.116 256.8 256.506 257.82 250.848 259.548C249.043 260.099 246.704 261.432 245.65 262.509C244.597 263.586 242.579 265.199 241.167 266.093C239.755 266.987 238.403 268.554 238.163 269.574C237.767 271.256 237.675 271.296 237.179 270C236.25 267.573 234.85 269.946 234.77 274.085C234.687 278.326 232.546 281.219 227.85 283.434C223.036 285.705 216.185 291.071 214.797 293.659C213.572 295.944 213.52 296.834 214.275 302.706C214.98 308.184 214.938 309.559 214.011 311.359C213.319 312.702 212.511 313.345 211.839 313.086C210.246 312.472 208.297 305.89 208.843 302.967C209.223 300.937 208.971 300.167 207.464 298.746C206.25 297.601 205.129 297.165 204.176 297.469C203.38 297.722 201.132 297.241 199.176 296.4C196.179 295.11 195.223 295.002 193.084 295.711C191.633 296.191 190.192 297.331 189.72 298.371C189.018 299.918 188.553 300.117 186.614 299.698C185.36 299.427 183.432 298.743 182.329 298.177C179.613 296.784 178.092 296.881 175.041 298.642C173.618 299.464 170.714 301.036 168.588 302.136C166.145 303.401 164.467 304.84 164.026 306.047C163.644 307.098 162.274 311.195 160.984 315.151L158.638 322.345L159.836 326.988C162.038 335.518 165.101 338.072 171.484 336.698C176.296 335.662 179.185 333.563 180.247 330.331C180.922 328.279 181.65 327.601 183.828 326.993C187.106 326.079 188.475 326.045 189.734 326.848C190.773 327.51 190.408 328.599 185.756 338.711C182.564 345.65 182.794 346.271 188.262 345.479C193.245 344.757 197.799 345.311 198.331 346.703C198.538 347.246 198.201 350.907 197.581 354.84C196.473 361.875 196.481 362.033 198.077 364.625C198.969 366.074 200.641 367.75 201.794 368.348C203.633 369.303 204.21 369.301 206.524 368.33C210.202 366.787 212.199 366.95 214.753 369.002C216.796 370.643 217.084 370.689 218.689 369.633C219.642 369.006 220.942 367.453 221.577 366.182C223.011 363.314 225.427 361.299 227.456 361.277C228.303 361.268 229.782 360.422 230.741 359.397C232.689 357.315 236.118 356.637 234.442 358.665C233.035 360.367 232.231 365.841 233.138 367.542C233.893 368.958 233.953 368.95 235.327 367.246C236.305 366.034 236.502 365.256 235.968 364.719C234.693 363.439 235.077 362.375 237.45 360.613C239.913 358.784 241.819 358.972 243.945 361.253C245.504 362.925 253.827 365.186 256.213 364.585C259.845 363.669 269.661 369.661 273.349 375.045C275.105 377.609 280.715 380.189 283.181 379.568C288.256 378.289 295.212 383.393 296.839 389.589C297.324 391.434 298.054 393.152 298.463 393.408C299.546 394.085 297.923 396.762 294.376 400.15C292.109 402.315 291.568 403.247 292.206 403.887C292.843 404.527 293.891 403.966 296.408 401.637C300.068 398.25 301.29 397.906 303.123 399.747C304.239 400.867 304.205 401.095 302.676 402.729C301.765 403.702 300.494 404.519 299.85 404.545C299.172 404.573 299.446 404.9 300.502 405.323C301.953 405.905 302.709 405.741 304.215 404.52C308.135 401.34 309.057 401.187 312.539 403.14C314.803 404.41 315.71 405.377 315.596 406.399C315.278 409.242 315.946 409.871 317.909 408.58C319.469 407.554 320.54 407.505 325.76 408.223C331.312 408.986 332.04 409.29 334.704 411.965C336.682 413.951 338.906 415.256 341.701 416.072C345.453 417.167 345.861 417.501 346.541 420.039C347.528 423.718 346.372 427.8 343.245 431.678C341.91 433.335 340.273 435.767 339.607 437.083C338.942 438.398 337.527 440.349 336.463 441.417C334.663 443.225 334.562 443.677 335.011 447.97C335.888 456.358 331.802 472.005 327.861 475.351C326.578 476.441 325.48 476.697 323.445 476.38C321.772 476.12 320.534 476.288 320.207 476.819C319.916 477.292 318.295 478.29 316.604 479.036C314.914 479.782 312.397 481.365 311.011 482.553C308.613 484.61 308.532 484.838 309.339 487.293C310.27 490.124 309.643 493.476 307.649 496.335C307.004 497.259 306.477 498.831 306.477 499.829C306.477 500.827 305.702 502.681 304.755 503.95C303.808 505.218 301.982 508.123 300.696 510.404C297.533 516.015 295.632 516.988 291.046 515.337C287.066 513.905 284.944 513.734 284.944 514.846C284.944 515.264 285.737 515.97 286.707 516.413C287.676 516.857 289.187 518.663 290.065 520.426C291.371 523.052 291.509 523.964 290.828 525.464C289.774 527.788 285.741 529.739 281.992 529.739C278.672 529.739 277.849 530.554 278.996 532.706C279.703 534.034 279.227 536.17 277.858 537.808C277.748 537.941 276.585 537.493 275.275 536.813C272.148 535.189 271.041 536.223 272.621 539.292C273.264 540.54 274.486 541.783 275.337 542.054C276.8 542.52 276.816 542.624 275.627 543.943C274.934 544.712 274.575 545.878 274.827 546.538C275.098 547.248 274.493 548.781 273.345 550.292C271.479 552.748 271.453 552.918 272.649 554.751C273.333 555.799 274.4 556.852 275.02 557.091C277.256 557.953 277.627 560.896 275.922 564.252C274.214 567.613 273.952 570.984 275.274 572.583C276.476 574.037 272.431 576.87 270.612 575.848H270.612ZM215.891 252.973C217.874 248.81 221.566 245.71 224.539 245.71C226.679 245.71 226.704 246.059 224.745 248.56L223.204 250.526L224.785 251.812C226.059 252.847 226.716 252.937 228.168 252.272C229.159 251.819 230.175 250.8 230.425 250.007C230.766 248.929 231.32 248.677 232.628 249.006C233.838 249.311 234.596 249.05 235.093 248.157C236.602 245.45 232.763 241.989 229.936 243.507C227.914 244.594 225.272 242.432 225.836 240.152C226.045 239.307 225.615 237.836 224.87 236.849C223.336 234.816 221.001 234.602 215.891 236.026C214.053 236.538 211.957 236.934 211.234 236.906C210.51 236.878 210.112 237.17 210.349 237.555C210.587 237.94 210.51 238.263 210.18 238.272C209.85 238.281 208.748 238.93 207.732 239.714L205.884 241.139L207.959 241.931C209.581 242.551 210.537 242.462 212.339 241.527C214.456 240.427 214.848 240.428 217.159 241.534C218.551 242.201 220.452 242.543 221.414 242.301C222.371 242.06 223.359 242.195 223.609 242.602C223.865 243.018 222.819 243.553 221.22 243.824C216.875 244.561 214.617 246.378 211.465 251.674C208.833 256.098 208.682 256.632 209.731 257.801C210.761 258.948 211.045 258.966 212.457 257.975C213.325 257.366 214.87 255.115 215.891 252.973V252.973ZM229.381 257.574C232.024 256.22 232.278 255.88 231.347 254.945C230.415 254.01 229.827 254.071 226.796 255.417C223.238 256.997 222.109 259.129 224.83 259.129C225.663 259.129 227.711 258.429 229.381 257.574ZM242.546 251.941C244.093 250.854 244.15 250.64 243.059 250.027C241.454 249.125 236.681 250.68 236.681 252.105C236.681 253.573 240.372 253.47 242.546 251.941ZM298.309 573.872C298.309 573.544 298.71 572.873 299.2 572.381C299.69 571.889 299.81 571.486 299.467 571.486C299.125 571.486 298.443 572.036 297.954 572.709C297.251 573.674 296.765 573.757 295.644 573.104C294.843 572.637 294.649 572.267 295.197 572.254C295.732 572.242 295.963 571.896 295.71 571.486C295.225 570.699 296.5 570.484 300.165 570.736C303.437 570.96 303.766 571.44 301.744 573.037C299.86 574.524 298.309 574.901 298.309 573.872V573.872ZM918.402 555.162C916.277 553.811 920.701 550.827 931.669 546.214C934.732 544.925 939.399 542.231 942.04 540.226C946.532 536.817 946.905 536.669 947.795 537.945C949.146 539.882 948.35 541.284 945.049 542.778C943.472 543.492 941.489 544.876 940.643 545.854C939.796 546.831 938.434 547.631 937.616 547.631C936.798 547.631 934.874 548.761 933.342 550.141C928.096 554.868 921.451 557.101 918.402 555.162ZM866.437 545.478C865.666 544.987 865.623 544.482 866.252 543.302C866.702 542.457 867.071 540.714 867.071 539.429C867.071 537.329 867.239 537.153 868.741 537.684C869.66 538.008 871.581 538.317 873.011 538.371C874.44 538.425 875.868 538.517 876.184 538.577C877.414 538.809 874.125 542.568 871.17 544.307C867.65 546.378 867.795 546.342 866.437 545.478V545.478ZM952.237 538.959C951.978 538.699 952.59 537.837 953.596 537.042C955.111 535.846 955.288 535.34 954.626 534.097C953.667 532.299 955.091 530.37 958.388 528.998C960.943 527.936 961.586 525.78 960.901 520.577C960.43 516.998 960.488 516.774 961.636 517.728C962.538 518.477 962.76 519.421 962.439 521.142C962.086 523.028 962.403 524.009 963.97 525.878C965.663 527.898 966.166 528.117 967.483 527.41C968.795 526.704 968.949 526.769 968.536 527.85C968.27 528.546 968.052 529.247 968.052 529.408C968.052 529.569 966.966 530.259 965.639 530.941C964.311 531.624 961.722 533.428 959.884 534.952C956.896 537.429 953.821 539.43 953.003 539.43C952.84 539.43 952.495 539.218 952.237 538.959V538.959ZM873.72 529.33C872.156 527.66 871.867 527.595 870.365 528.583C868.451 529.843 864.854 529.107 861.971 526.866C860.433 525.671 860.326 525.285 861.119 523.797C861.796 522.528 861.818 521.638 861.207 520.291C860.757 519.299 860.388 517.832 860.388 517.031C860.388 515.225 859.22 515.139 858.253 516.873C857.855 517.588 857.317 517.958 857.057 517.697C856.797 517.436 857.657 515.996 858.968 514.497C862.194 510.807 860.935 509.806 856.673 512.671C854.837 513.906 853.215 515.255 853.07 515.669C852.925 516.083 852.042 514.806 851.109 512.83C850.097 510.688 848.349 508.536 846.779 507.497C844.419 505.936 843.619 505.808 839.087 506.261C832.441 506.925 826.028 508.57 821.831 510.689C819.923 511.652 816.2 512.637 813.329 512.94C810.519 513.236 806.051 514.298 803.4 515.3C799.345 516.832 798.191 516.993 796.136 516.312C793.38 515.399 792.236 513.517 794.018 512.83C794.664 512.581 795.836 510.871 796.622 509.028C797.881 506.08 797.951 505.161 797.204 501.351C796.586 498.199 796.569 495.215 797.141 490.362C797.572 486.697 797.738 482.978 797.508 482.096C797.278 481.214 797.637 479.056 798.305 477.299C799.483 474.202 799.769 473.999 807.734 470.612C812.252 468.691 816.877 467.119 818.011 467.119C821.08 467.119 824.88 464.187 826.975 460.203C828.27 457.741 829.169 456.804 829.946 457.106C832.114 457.947 832.542 457.782 832.375 456.168C832.268 455.129 832.712 454.374 833.596 454.092C834.361 453.849 835.773 452.491 836.735 451.076C837.72 449.627 839.745 447.994 841.37 447.339C844.08 446.247 844.35 446.263 845.825 447.608C848.545 450.091 850.473 450.816 851.394 449.702C851.842 449.16 851.996 448.504 851.736 448.243C850.886 447.39 854.775 442.491 856.676 442.02C857.697 441.768 859.793 440.927 861.334 440.152C863.737 438.943 864.582 438.863 867.274 439.588C873.079 441.153 873.272 441.409 871.112 444.685C868.336 448.898 869.072 450.545 875.883 455.358C879.027 457.58 881.996 459.266 882.48 459.104C882.963 458.942 884.493 457.241 885.878 455.323C887.766 452.71 888.498 450.809 888.801 447.736C889.231 443.371 891.311 437.299 892.376 437.299C892.729 437.299 893.537 439.095 894.173 441.289C894.808 443.484 896.139 446.044 897.131 446.98C899.449 449.167 900.796 455.281 899.755 458.893C899.065 461.287 899.198 461.671 901.562 464.111C902.966 465.56 905.185 469.094 906.495 471.964C907.804 474.834 910.165 478.895 911.741 480.989L914.606 484.795L913.792 490.675C913.201 494.941 912.286 497.784 910.459 501.033C907.66 506.009 903.476 510.758 901.271 511.461C900.477 511.713 898.64 513.581 897.187 515.611C895.735 517.641 894.219 519.302 893.82 519.302C893.42 519.302 891.722 521.045 890.045 523.174C887.249 526.725 886.735 527.05 883.821 527.105C881.586 527.148 879.874 527.756 878.038 529.162L875.431 531.159L873.72 529.33H873.72ZM511.658 513.657C510.086 512.078 509.823 511.27 510.174 509.096C510.505 507.05 510.19 505.846 508.778 503.759C507.775 502.277 506.954 500.7 506.954 500.254C506.954 499.808 505.641 497.677 504.036 495.517C501.556 492.18 501.046 490.846 500.637 486.623C499.916 479.172 497.546 471.107 494.361 465.262C492.795 462.388 491.291 458.657 491.018 456.97C490.438 453.381 491.89 448.039 495.204 441.567L497.408 437.262L496.17 433.517C495.477 431.423 495.138 428.944 495.401 427.891C495.709 426.659 495.378 425.192 494.442 423.641C493.656 422.338 492.489 419.426 491.849 417.171C490.993 414.159 489.8 412.201 487.354 409.791C482.648 405.155 482.036 403.331 483.497 398.287C486.47 388.018 483.258 382.029 475.411 383.211C472.356 383.671 472.239 383.614 471.808 381.446C471.477 379.784 470.579 378.806 468.325 377.652C465.397 376.151 464.143 376.146 460.547 377.616C459.73 377.95 456.389 379.108 453.122 380.188C448.21 381.813 446.735 382.023 444.596 381.4C442.571 380.811 440.864 380.963 436.719 382.105C432.435 383.285 430.883 383.412 428.568 382.77C423.739 381.431 415.441 373.923 414.261 369.823C413.348 366.651 407.668 359.257 405.735 358.724C404.506 358.386 404.355 358.124 405.107 357.636C405.864 357.146 405.732 356.898 404.551 356.588C402.674 356.095 402.487 354.555 404.302 354.54C405.413 354.53 405.44 354.423 404.488 353.805C403.786 353.35 403.708 353.079 404.277 353.071C404.867 353.064 404.642 352.145 403.63 350.423C402.206 347.999 402.177 347.679 403.265 346.472C406.587 342.787 407.314 334.852 404.789 329.852C403.584 327.466 404.359 324.169 406.931 320.741C407.9 319.451 409.791 316.311 411.134 313.764C413.483 309.308 418.718 303.113 420.135 303.113C421.704 303.113 426.763 297.652 426.763 295.959C426.763 292.138 429.039 288.327 432.749 285.937C434.742 284.653 437.078 282.457 437.94 281.057C439.703 278.194 439.952 278.1 442.005 279.537C442.81 280.1 444.812 280.787 446.453 281.064C448.955 281.485 450.152 281.182 453.878 279.181C460.289 275.739 464.251 274.879 471.587 275.338C476.425 275.642 478.603 275.448 480.949 274.506C484.402 273.118 487.388 273.939 486.58 276.054C486.337 276.69 486.485 277.63 486.909 278.143C487.443 278.789 487.439 279.714 486.896 281.148C486.213 282.95 486.365 283.487 488.055 285.258C489.125 286.379 491.04 287.505 492.311 287.76C498.278 288.958 499.975 289.734 501.207 291.829C502.11 293.363 503.293 294.151 505.25 294.519C506.771 294.806 508.981 295.541 510.16 296.153C512.162 297.192 512.421 297.154 514.09 295.58C515.213 294.521 515.722 293.4 515.459 292.568C515.228 291.838 515.404 290.558 515.849 289.722C516.998 287.567 520.259 287.779 525.352 290.338C530.901 293.127 541.422 295.117 545.153 294.083C546.947 293.586 548.672 293.579 550.243 294.064C555.373 295.647 558.001 294.408 558.701 290.074C558.934 288.635 559.331 287.457 559.584 287.457C560.063 287.457 560.315 285.293 560.384 280.562C560.407 279.024 560.769 277.766 561.189 277.766C561.689 277.766 561.664 277.226 561.117 276.2C560.204 274.487 558.352 274.526 553.92 276.352C551.819 277.218 551.234 277.182 549.351 276.065C546.909 274.617 544.404 274.4 543.681 275.573C543.144 276.446 539.348 275.834 537.288 274.543C535.809 273.616 534.427 270.855 534.427 268.828C534.427 268.05 533.675 266.882 532.756 266.233C531.334 265.227 531.251 264.942 532.199 264.319C532.812 263.917 534.072 263.766 534.999 263.986C536.182 264.265 537.27 263.797 538.643 262.418C539.936 261.121 541.507 260.405 543.268 260.311C544.735 260.233 546.86 259.557 547.991 258.809C550.444 257.186 556.015 257.637 560.337 259.809C566.165 262.738 571.341 262.566 573.424 259.373C574.508 257.713 574.514 257.364 573.485 255.788C572.859 254.827 569.848 252.615 566.796 250.871L561.246 247.701L562.286 245.682C562.857 244.572 563.138 243.475 562.909 243.245C562.681 243.016 562.768 242.386 563.104 241.846C563.439 241.307 563.78 240.432 563.859 239.902C564.03 238.773 562.832 239.085 556.928 241.707C553.5 243.229 552.99 243.695 553.751 244.615C554.249 245.217 555.367 245.725 556.236 245.743C557.455 245.769 557.166 246.121 554.973 247.282C552.311 248.692 552.014 248.711 550.283 247.572C548.803 246.598 548.609 246.145 549.311 245.297C550.007 244.454 549.903 244.13 548.804 243.715C548.043 243.428 547.062 242.714 546.624 242.128C544.498 239.282 537.75 246.769 535.788 254.153C534.867 257.618 534.897 257.798 536.631 259.112L538.431 260.475L535.129 261.158C533.314 261.534 530.866 261.578 529.691 261.256C527.522 260.661 524.774 261.557 524.774 262.859C524.774 263.242 524.269 263.361 523.651 263.123C523.033 262.885 522.052 263.086 521.471 263.57C520.57 264.321 520.672 264.936 522.166 267.755C523.783 270.81 523.833 271.227 522.824 273.258C521.56 275.802 520.384 275.613 518.599 272.578C517.354 270.462 517.362 270.413 519.009 270.178C521.088 269.882 521.222 268.553 519.205 268.23C514.605 267.491 512.151 265.057 512.151 261.232C512.151 258.247 509.396 254.957 506.053 253.951C504.317 253.429 502.429 252.332 501.858 251.514C501.287 250.695 499.616 249.521 498.145 248.904C496.673 248.286 495.026 247.147 494.485 246.371C493.708 245.257 493.197 245.123 492.06 245.734C491.267 246.16 490.619 246.988 490.619 247.575C490.619 249.51 500.083 258.267 504.709 260.611C509.614 263.097 510.38 263.985 506.972 263.233C503.934 262.563 503.106 263.234 504.145 265.524C504.875 267.133 504.756 267.622 503.287 269.038L501.582 270.684L501.97 268.463C502.586 264.938 497.957 259.875 494.118 259.875C492.711 259.875 487.304 254.609 485.888 251.859C484.374 248.921 482.69 248.353 480.305 249.977C476.711 252.424 474.016 253.251 471.198 252.773C467.453 252.138 465.097 253.449 465.694 255.836C466.005 257.082 465.832 257.638 465.132 257.638C464.575 257.638 463.149 258.476 461.962 259.501C460.775 260.526 459.549 261.364 459.237 261.365C458.318 261.366 455.727 266.076 455.724 267.749C455.72 269.349 452.817 272.503 450.015 273.948C449.123 274.408 447.047 274.784 445.401 274.784C443.136 274.784 442.208 275.159 441.587 276.324C440.773 277.851 440.749 277.847 438.846 275.937C437.061 274.144 436.033 273.696 432.43 273.136C430.537 272.842 430.217 268.54 431.633 262.411C432.238 259.791 432.535 256.854 432.293 255.886C431.59 253.071 433.792 251.412 437.477 251.98C445.985 253.292 450.961 253.365 452.128 252.193C453.731 250.584 454.454 245.277 453.475 242.301C452.837 240.36 451.96 239.567 449.342 238.563C445.491 237.086 445.41 235.658 449.175 235.62C450.609 235.606 452.678 235.005 453.773 234.285C454.867 233.565 456.078 233.171 456.462 233.41C457.512 234.061 461.487 231.761 462.807 229.738C463.445 228.761 464.701 227.773 465.598 227.543C466.495 227.314 468.9 225.563 470.942 223.654C473.837 220.946 475.356 220.097 477.838 219.8C480.913 219.431 484.006 216.892 482.554 215.928C481.652 215.329 480.898 211.719 481.4 210.404C481.639 209.781 482.69 208.708 483.736 208.019L485.639 206.768L485.151 209.835C484.727 212.497 484.835 212.873 485.97 212.683C486.689 212.562 488.034 212.046 488.959 211.536C490.367 210.759 490.713 210.797 491.084 211.768C491.72 213.433 489.951 215.391 488.73 214.373C488.055 213.811 487.628 213.832 487.251 214.444C486.862 215.075 486.558 215.041 486.111 214.315C485.776 213.771 485.331 213.496 485.123 213.705C484.915 213.915 485.508 215.048 486.442 216.224C488.016 218.206 488.316 218.3 490.56 217.514C492.481 216.842 493.404 216.888 495.04 217.737C496.886 218.696 497.51 218.65 501.059 217.296C504.169 216.11 505.395 215.958 506.771 216.587C508.038 217.167 508.976 217.155 510.152 216.544C513.492 214.812 514.417 213.505 514.002 211.107C513.388 207.552 514.513 206.388 517.478 207.512C519.495 208.276 520.085 208.246 520.996 207.33C521.962 206.361 521.879 206.003 520.297 204.312C518.775 202.686 518.668 202.281 519.596 201.653C520.198 201.245 522.453 201.099 524.608 201.328C528.552 201.748 533.467 200.201 532.61 198.81C531.86 197.591 527.334 197.239 523.499 198.101C520.098 198.865 519.205 198.803 516.599 197.623C512.55 195.79 512.073 193.646 514.85 189.76C518.424 184.759 519.078 183.165 518.06 181.933C516.552 180.109 515.071 180.704 511.627 184.516C509.807 186.53 507.327 188.59 506.116 189.094C504.905 189.597 503.407 190.994 502.787 192.198C501.777 194.158 501.779 194.568 502.802 196.136C503.43 197.099 504.621 198.102 505.449 198.366C507.727 199.092 507.276 200.454 504.018 202.692C503.016 203.381 501.68 205.328 501.048 207.02C500.257 209.14 499.054 210.586 497.177 211.674C494.532 213.208 494.412 213.214 492.95 211.885C492.122 211.133 491.244 209.6 490.999 208.478C490.753 207.355 489.638 205.337 488.521 203.993L486.489 201.55L483.913 203.127C482.497 203.994 480.669 204.697 479.852 204.69C477.496 204.668 474.768 202.112 474.586 199.756C474.495 198.585 474.192 197.053 473.912 196.351C473.247 194.681 476.572 191.549 480.027 190.591C483.495 189.63 490.529 184.681 491.727 182.359C492.26 181.326 494.067 179.247 495.741 177.74C497.416 176.232 498.786 174.667 498.786 174.26C498.786 173.854 500.373 172.954 502.313 172.26C504.253 171.566 507.511 170.307 509.553 169.462C512.06 168.424 515.194 167.876 519.205 167.773C526.214 167.593 530.797 168.526 534.579 170.901C536.476 172.093 537.974 172.5 539.407 172.212C541.971 171.698 555.636 175.95 556.206 177.44C556.778 178.937 552.858 180.351 549.486 179.863C547.942 179.64 544.748 179.043 542.388 178.536C539.212 177.854 537.881 177.832 537.263 178.453C536.645 179.074 536.954 179.532 538.453 180.218C539.567 180.727 540.961 182.082 541.552 183.228C543.055 186.146 547.869 188.525 550.353 187.577C552.74 186.666 552.723 186.379 550.205 185.007C547.876 183.739 548.951 183.465 551.876 184.581C554.211 185.473 556.857 184.363 556.241 182.751C555.952 181.996 556.764 181.451 559.053 180.862C563.952 179.602 564.31 179.422 563.904 178.424C562.367 174.652 562.346 174.76 564.582 175.017C565.775 175.153 566.647 175.666 566.548 176.172C566.45 176.672 567.071 177.459 567.929 177.92C569.218 178.612 570.235 178.366 573.779 176.501C578.976 173.766 583.022 172.874 584.53 174.131C585.372 174.832 586.766 174.837 590.804 174.153C593.66 173.67 596.32 173.475 596.717 173.721C597.113 173.967 597.656 173.813 597.924 173.378C598.509 172.428 596.891 170.271 596.005 170.821C594.936 171.484 591.424 170.295 592.188 169.528C592.957 168.756 613.621 173.59 614.857 174.832C615.691 175.669 618.33 174.552 618.33 173.363C618.33 172.962 616.857 171.915 615.055 171.037C609.471 168.312 609.112 163.95 614.364 162.626C617.412 161.858 618.73 162.744 622.946 168.395C628.42 175.732 628.28 175.358 626.492 177.88C625.168 179.747 625.088 180.184 626.007 180.538C627.748 181.209 631.473 178.862 631.998 176.764C632.612 174.306 631.465 172.212 628.725 170.79C626.572 169.671 625.013 167.623 625.013 165.91C625.013 165.326 625.821 165.181 627.426 165.475C629.833 165.916 631.824 165.04 637.275 161.14C638.521 160.248 640.629 159.66 642.754 159.612C647.064 159.513 648.459 158.787 647.218 157.286C646.732 156.698 646.489 156.061 646.678 155.872C647.626 154.92 659.85 153.204 662.665 153.628C665.374 154.036 666.212 153.815 668.441 152.108C669.875 151.01 671.048 149.816 671.048 149.455C671.048 148.544 664.56 148.625 663.995 149.543C663.217 150.807 662.209 150.367 662.492 148.888C662.732 147.639 662.103 147.436 656.695 147.013C641.927 145.859 640.726 145.588 642.498 143.809C644.056 142.245 647.876 142.276 651.074 143.877C652.384 144.534 654.555 145.07 655.897 145.07C657.24 145.07 658.545 145.406 658.797 145.816C659.049 146.226 660.35 146.561 661.687 146.561C665.39 146.561 672.55 148.167 672.101 148.897C671.882 149.253 672.575 149.543 673.64 149.543C674.706 149.543 676.647 150.121 677.953 150.827C679.711 151.777 682.166 152.118 687.384 152.139C692.992 152.162 694.856 152.451 696.479 153.55C697.602 154.311 698.516 155.146 698.51 155.407C698.505 155.667 696.791 156.826 694.703 157.983C689.659 160.777 690.725 161.995 696.826 160.408C700.777 159.379 701.685 159.373 704.957 160.348C707.641 161.149 709.317 161.251 711.138 160.727C712.955 160.204 714.821 160.316 717.986 161.14C721.288 161.999 723 162.086 725.093 161.503C729.87 160.171 735.746 160.547 739.156 162.403C740.85 163.325 743.975 165.032 746.1 166.196C749.867 168.259 750.031 168.282 752.643 167.106C754.83 166.122 756.05 166.039 759.275 166.658C762.481 167.274 763.648 167.199 765.454 166.261C767.22 165.344 767.504 164.893 766.83 164.078C765.526 162.501 770.152 161.914 775.836 162.936C778.439 163.405 781.738 163.872 783.167 163.975C784.597 164.078 787.389 164.896 789.373 165.792C792.398 167.159 794.681 167.469 803.533 167.713C811.933 167.945 814.607 168.282 816.633 169.367C818.69 170.467 821.034 170.747 828.831 170.823C836.005 170.893 839.219 171.235 841.347 172.153C844.782 173.636 846.157 173.092 844.287 170.99C842.942 169.479 842.95 169.477 848.137 169.994C856.828 170.861 867.254 172.77 870.783 174.142C872.621 174.856 876.124 175.686 878.567 175.986C881.01 176.286 884.575 177.328 886.489 178.302C889.394 179.78 890.338 179.943 892.203 179.29C894.755 178.397 896.41 179.04 900.305 182.438L902.726 184.549L900.902 185.009C899.071 185.47 894.209 184.261 892.534 182.929C892.042 182.537 891.351 182.395 890.999 182.613C890.648 182.831 888.911 182.508 887.14 181.896C882.992 180.461 881.151 181 883.04 183.096C884.33 184.527 884.302 184.557 881.841 184.385C877.237 184.062 878.503 185.427 885.262 188.074C888.938 189.514 892.102 190.844 892.294 191.031C892.991 191.709 890.694 192.548 889.022 192.227C887.186 191.875 882.663 193.853 882.663 195.008C882.663 195.391 881.949 196.374 881.075 197.191C879.616 198.556 879.314 198.587 877.363 197.573C875.536 196.625 874.952 196.615 873.196 197.503C872.073 198.071 870.154 198.778 868.931 199.073C867.708 199.369 866.292 199.957 865.783 200.381C864.289 201.626 866.924 205.25 870.635 207.054C872.656 208.036 874.119 209.352 874.554 210.579C874.936 211.656 875.746 213.424 876.353 214.508C877.343 216.276 877.335 216.528 876.271 216.938C875.491 217.238 875.261 217.84 875.601 218.693C875.885 219.407 876.207 220.83 876.315 221.855C876.424 222.88 876.751 224.276 877.043 224.956C877.423 225.842 877.109 226.341 875.938 226.714C874.636 227.129 873.758 226.629 871.615 224.251C870.137 222.61 867.67 220.351 866.135 219.23C864.599 218.11 861.848 215.197 860.02 212.756C856.797 208.451 856.731 208.255 857.8 206.178C858.407 205.001 858.915 203.266 858.929 202.323C858.944 201.38 859.415 199.776 859.976 198.757C861.049 196.812 860.636 195.26 858.343 192.619C856.838 190.885 854.159 192.185 854.835 194.321C855.457 196.29 853.548 196.928 851.352 195.485C850.401 194.859 848.209 194.121 846.483 193.845C843.519 193.37 843.298 193.461 842.531 195.484C842.083 196.663 841.896 198.526 842.114 199.624C842.453 201.336 842.217 201.686 840.463 202.073C839.27 202.336 837.226 202.025 835.561 201.326C833.731 200.558 832.008 200.326 830.768 200.68C829.703 200.984 826.102 201.26 822.766 201.294C817.481 201.347 816.463 201.578 814.857 203.093C813.843 204.049 812.624 206.398 812.149 208.311C811.674 210.225 810.804 212.538 810.215 213.451C809.197 215.028 809.295 215.187 812.205 216.678C815.364 218.296 818.807 218.722 821.418 217.818C823.431 217.121 829.574 221.929 831.492 225.704C832.277 227.25 833.576 228.867 834.377 229.298C837.41 230.927 838.026 241.62 835.49 248.61C833.734 253.45 831.769 255.032 828.883 253.931C827.781 253.51 826.767 253.165 826.631 253.165C826.494 253.165 825.668 254.542 824.795 256.224C823.648 258.433 823.425 259.545 823.99 260.229C825.072 261.538 824.271 263.241 822.108 264.231C821.11 264.687 820.293 265.386 820.293 265.783C820.293 266.18 822.616 268.11 825.455 270.072C829.067 272.568 830.997 274.485 831.882 276.456C832.578 278.005 833.012 279.396 832.846 279.546C832.68 279.696 831.162 280.519 829.473 281.374L826.402 282.928L824.555 278.67C822.487 273.904 820.713 271.987 817.588 271.143C816.014 270.718 815.466 270.115 815.466 268.81C815.466 267.613 814.696 266.596 813.06 265.634C810.676 264.232 810.629 264.233 808.092 265.807C805.553 267.383 805.524 267.384 804.744 265.921C804.311 265.11 803.957 263.932 803.957 263.305C803.957 262.677 803.333 261.828 802.571 261.418C801.436 260.809 800.72 261.177 798.635 263.442C797.233 264.965 795.437 266.582 794.644 267.035C793.413 267.738 793.347 268.035 794.196 269.061C794.743 269.723 796.631 271.072 798.391 272.061C801.192 273.632 801.728 273.721 802.672 272.773C803.57 271.872 804.301 271.839 807.01 272.577L810.269 273.465L808.453 274.684C805.085 276.944 804.023 278.131 803.542 280.17C803.147 281.844 803.383 282.348 804.88 283.033C805.879 283.49 807.397 285.313 808.255 287.084C809.112 288.856 810.824 290.905 812.06 291.638C814.777 293.249 815.565 294.962 813.996 295.843C812.533 296.666 813.231 297.894 815.162 297.894C817.475 297.894 817.488 299.279 815.253 307.273C812.546 316.954 810.103 320.184 803.709 322.532C801.191 323.457 798.129 324.269 796.904 324.337C794.056 324.495 791.847 325.706 789.921 328.165L788.391 330.117L787.678 328.234C786.748 325.777 784.614 325.159 781.551 326.46C778.744 327.652 776.894 329.553 776.148 332.011C775.48 334.211 777.845 338.081 781.76 341.194C784.974 343.75 788.581 350.164 789.428 354.831C790.164 358.891 788.859 361.555 785.358 363.141C783.763 363.863 782.27 365.047 782.041 365.772C781.491 367.514 778.194 369.682 777.589 368.7C777.337 368.291 777.327 367.336 777.567 366.577C777.807 365.818 777.795 364.653 777.541 363.988C777.175 363.031 776.77 362.945 775.597 363.575C774.376 364.231 773.905 364.065 772.919 362.629C770.496 359.102 763.472 353.433 761.525 353.433C760.84 353.433 760.575 354.261 760.692 356.042C760.786 357.477 760.495 360.275 760.045 362.259C759.312 365.493 759.387 366.085 760.769 367.962C761.617 369.114 762.522 370.9 762.78 371.93C763.041 372.977 765.189 375.367 767.645 377.345C771.738 380.641 772.169 381.291 773.892 386.766C774.909 390.001 775.742 392.966 775.742 393.355C775.742 394.619 774.191 394.107 770.954 391.773C767.608 389.36 765.47 385.543 763.688 378.796C762.914 375.866 762.065 374.61 759.658 372.832C756.705 370.651 756.615 370.46 756.853 366.851C756.989 364.801 757.323 361.896 757.597 360.394C757.983 358.28 757.664 356.766 756.185 353.685C755.134 351.496 753.892 348.135 753.424 346.215C752.379 341.926 750.903 341.208 748.293 343.718C747.214 344.756 746.123 345.605 745.869 345.605C744.687 345.605 743.063 343.08 743.453 341.847C744.16 339.61 739.81 331.809 737.264 330.751C735.872 330.171 734.598 328.767 733.746 326.869C732.265 323.573 730.604 322.311 728.945 323.223C728.343 323.554 725.933 324.219 723.589 324.702C719.293 325.587 717.752 326.893 718.34 329.151C718.556 329.982 717.805 330.785 716.002 331.648C714.54 332.348 712.966 333.755 712.503 334.776C712.04 335.796 711.02 336.835 710.237 337.084C709.454 337.334 708.246 338.475 707.553 339.62C706.859 340.765 704.794 342.857 702.964 344.27C700.458 346.203 699.676 347.284 699.8 348.644C700.528 356.594 699.411 363.245 696.685 367.195C694.026 371.048 693.839 371.155 691.589 370.126C690.35 369.559 689.588 368.453 689.273 366.764C689.014 365.379 687.518 361.478 685.949 358.094C676.455 337.621 675.051 333.714 675.86 330.017C676.407 327.519 675.095 323.749 673.828 324.176C673.32 324.347 672.896 324.962 672.885 325.541C672.822 328.944 669.014 329.466 666.04 326.481L664.069 324.502L665.765 323.872C667.672 323.164 667.497 321.253 665.557 321.603C664.867 321.728 663.289 320.973 662.05 319.926C660.811 318.879 659.511 318.022 659.161 318.022C658.812 318.022 658.313 317.348 658.052 316.523C657.368 314.358 653.429 312.475 651.455 313.369C649.678 314.173 633.561 314.005 630.863 313.154C629.892 312.847 628.094 311.445 626.869 310.037C624.655 307.493 624.621 307.483 621.3 308.382C618.154 309.233 617.696 309.153 613.458 307.005C609.796 305.149 608.698 304.148 607.568 301.63C606.125 298.419 602.922 296.093 600.974 296.844C600.36 297.08 599.644 298.254 599.381 299.453C599.005 301.175 599.389 302.294 601.209 304.779C602.477 306.51 603.858 309.208 604.279 310.776C605.182 314.143 606.965 315.145 608.443 313.115C609.335 311.89 609.576 311.848 610.18 312.808C610.566 313.421 610.774 314.258 610.642 314.668C610.229 315.956 614.514 318.077 616.513 317.573C617.523 317.319 619.682 315.591 621.31 313.734C623.875 310.808 624.771 310.611 624.333 313.068C624.038 314.721 625.333 316.66 627.479 317.773C630.792 319.493 635.408 323.324 635.408 324.354C635.408 324.829 634.54 326.031 633.479 327.025C632.419 328.019 630.892 330.122 630.087 331.698C628.131 335.529 622.461 341.132 620.54 341.132C618.321 341.132 615.02 343.014 613.706 345.027C613.084 345.981 611.447 347.327 610.069 348.018C603.012 351.555 594.515 355.141 592.123 355.591C589.567 356.073 589.36 355.956 588.005 353.275C587.221 351.722 586.331 348.606 586.027 346.351C585.633 343.418 584.868 341.553 583.34 339.802C582.166 338.455 581.205 337.03 581.205 336.634C581.205 336.239 579.865 334.529 578.227 332.835C576.188 330.725 574.87 328.435 574.044 325.566C573.38 323.262 572.03 320.371 571.044 319.141C564.229 310.644 562.211 307.649 561.196 304.52C559.849 300.374 558.711 299.704 558.185 302.75L557.812 304.912L555.3 301.728C551.43 296.821 550.942 299.051 554.576 305.041C556.295 307.876 559.036 312.879 560.667 316.159C562.297 319.439 564.411 323.161 565.364 324.429C566.346 325.736 567.097 327.778 567.097 329.138C567.097 331.947 567.932 333.7 571.211 337.778C572.53 339.418 573.833 341.812 574.106 343.099C574.457 344.749 575.89 346.474 578.972 348.955C583.654 352.726 586.688 356.662 587.441 359.942C587.724 361.174 588.796 362.439 590.155 363.145C592.226 364.22 592.954 364.19 599.498 362.767C603.402 361.918 607.537 360.734 608.687 360.137L610.779 359.051L611.276 362.002C611.727 364.683 611.241 365.975 605.956 376.153C600.272 387.098 600.006 387.459 594.355 391.939C591.174 394.46 587.845 397.547 586.958 398.798C586.07 400.05 583.231 403.429 580.648 406.309C573.109 414.712 572.085 422.103 577.084 432.009C578.354 434.525 578.85 436.429 578.549 437.633C578.299 438.635 578.46 441.164 578.906 443.254C579.609 446.545 579.529 447.425 578.313 449.818C576.557 453.272 575.16 454.513 570.253 456.982C568.109 458.061 566.355 459.262 566.355 459.652C566.355 460.041 564.851 462.059 563.013 464.137C561.176 466.214 559.672 468.252 559.672 468.664C559.672 469.077 560.361 470.77 561.203 472.427C563.727 477.395 562.031 480.995 555.981 483.511C553.43 484.571 552.592 486.737 553.223 490.641C553.554 492.686 553.344 493.367 552.189 493.987C551.392 494.415 549.952 496.009 548.988 497.529C545.944 502.328 537.195 510.82 533.22 512.833C529.903 514.513 529.055 514.661 526.618 513.986C524.469 513.39 522.736 513.484 519.133 514.393C513.299 515.864 513.918 515.925 511.658 513.657L511.658 513.657ZM609.457 275.883C611.374 274.888 611.648 274.34 611.648 271.502C611.648 269.467 611.214 267.896 610.485 267.289C609.846 266.756 608.809 265.324 608.182 264.107C607.145 262.093 607.15 261.935 608.231 262.352C609.66 262.902 611.648 262.24 611.648 261.215C611.648 260.809 610.957 259.504 610.113 258.313C608.841 256.52 608.331 256.281 607.143 256.92C606.181 257.436 605.708 257.441 605.708 256.934C605.708 256.518 604.382 255.499 602.762 254.669C599.178 252.833 597.902 250.799 599.02 248.701C599.866 247.114 602.889 246.001 604.18 246.802C605.921 247.882 606.434 246.29 604.998 244.266C601.515 239.355 596.666 239.679 590.653 245.222C586.772 248.799 586.435 249.75 588.63 250.929C589.447 251.368 590.115 252.226 590.115 252.835C590.115 253.445 591.436 255.383 593.05 257.141C596.768 261.19 597.449 263.041 596.989 267.833L596.619 271.691L601.72 274.319C604.526 275.765 606.921 276.964 607.044 276.984C607.166 277.004 608.252 276.509 609.457 275.883H609.457ZM589.001 484.119C586.905 482.926 586.607 482.296 586.059 477.895C585.622 474.379 585.804 473.615 587.899 470.196C590.029 466.722 590.182 466.053 589.712 462.279C589.034 456.829 590.188 453.966 593.343 453.271C596.315 452.616 602.745 446.917 604.286 443.571L605.464 441.015L606.282 442.818C608.341 447.355 608.132 449.349 604.549 459.301C602.633 464.626 600.576 470.995 599.979 473.455C598.07 481.328 596.985 483.227 593.858 484.168C590.528 485.169 590.851 485.172 589.001 484.119V484.119ZM954.761 471.159C952.392 468.556 950.974 466.323 950.974 465.195C950.974 462.694 951.374 462.912 953.517 466.583C954.541 468.338 956.393 470.749 957.632 471.941C958.871 473.132 959.884 474.38 959.884 474.713C959.884 476.147 958.304 475.05 954.761 471.159V471.159ZM623.528 470.101C623.528 469.691 623.862 469.355 624.27 469.355C624.679 469.355 625.013 469.691 625.013 470.101C625.013 470.511 624.679 470.846 624.27 470.846C623.862 470.846 623.528 470.511 623.528 470.101ZM1014.54 468.741C1014.28 468.315 1014.43 467.743 1014.87 467.468C1015.97 466.784 1016.36 467.328 1015.62 468.524C1015.23 469.165 1014.85 469.242 1014.54 468.741V468.741ZM628.725 467.535C628.725 467.355 629.06 466.999 629.468 466.746C629.876 466.493 630.21 466.64 630.21 467.075C630.21 467.509 629.876 467.864 629.468 467.864C629.06 467.864 628.725 467.716 628.725 467.535ZM995.23 459.969C994.507 458.077 995.425 457.414 997.472 458.35C999.238 459.158 999.277 459.282 998.046 460.186C996.324 461.45 995.78 461.408 995.23 459.969ZM999.935 456.654C998.484 455.754 999.489 455.035 1001.8 455.321C1003.61 455.546 1003.65 455.628 1002.36 456.427C1001.53 456.938 1000.54 457.031 999.935 456.654V456.654ZM965.267 453.918C963.743 450.622 964.277 449.355 965.854 452.529C967.495 455.831 967.524 455.939 966.753 455.931C966.446 455.927 965.778 455.022 965.267 453.918V453.918ZM968.11 453.389C968.078 452.604 968.254 452.163 968.5 452.411C968.747 452.659 968.774 453.302 968.559 453.84C968.322 454.434 968.146 454.258 968.11 453.389H968.11ZM1028.56 446.232C1027.88 445.128 1028.52 444.564 1030.11 444.875C1031.27 445.102 1031.28 445.223 1030.23 446.095C1029.4 446.79 1028.93 446.829 1028.56 446.232V446.232ZM589.744 442.518C589.491 442.108 589.639 441.772 590.071 441.772C590.504 441.772 590.857 442.108 590.857 442.518C590.857 442.928 590.71 443.263 590.53 443.263C590.35 443.263 589.996 442.928 589.744 442.518ZM915.705 435.514C911.006 434.026 908.876 432.644 907.026 429.885C904.914 426.732 901.048 424.346 899.073 424.975C898.275 425.23 896.931 426.613 896.087 428.049C894.651 430.493 894.375 430.628 891.764 430.162C890.23 429.888 888.087 428.833 887.003 427.818C885.624 426.528 884.567 426.12 883.491 426.463C882.644 426.733 881.417 426.653 880.764 426.287C879.743 425.713 879.843 425.444 881.476 424.37C883.367 423.126 883.37 423.11 882.101 420.439C881.082 418.293 879.676 417.175 875.079 414.855C871.918 413.259 868.344 411.953 867.137 411.953C864.376 411.953 863.236 409.398 865.316 407.871C866.553 406.962 866.372 406.737 863.144 405.162C859.717 403.49 859.668 403.42 861.305 402.507C862.23 401.991 863.72 401.557 864.615 401.543C866.355 401.514 868.556 404.034 868.556 406.055C868.556 406.728 869.278 408.201 870.16 409.327C871.742 411.345 871.782 411.354 872.945 409.896C873.594 409.083 875.665 407.531 877.547 406.448L880.97 404.479L885.715 406.628C888.325 407.81 892.029 409.345 893.947 410.039C895.865 410.733 899.701 412.795 902.472 414.623C907.764 418.112 910.063 421.054 908.745 422.649C907.67 423.95 911.892 429.872 916.262 433.195C921.065 436.847 920.984 437.185 915.705 435.514V435.514ZM948.019 435.454C947.433 434.745 947.377 434.318 947.869 434.318C948.767 434.318 949.813 435.732 949.298 436.249C949.111 436.436 948.536 436.079 948.019 435.454V435.454ZM823.262 432.419C822.186 431.822 821.874 431.382 822.52 431.373C823.846 431.355 825.967 432.596 825.468 433.098C825.275 433.291 824.282 432.986 823.262 432.419ZM835.816 431.434C837.921 428.465 841.217 427.194 844.263 428.177C846.483 428.893 846.518 428.952 844.755 429.023C843.712 429.065 841.278 430.106 839.346 431.336C834.938 434.142 833.874 434.172 835.816 431.434V431.434ZM943.549 432.454C942.546 431.24 942.786 431.088 944.602 431.788C945.248 432.037 945.777 432.54 945.777 432.906C945.777 433.937 944.574 433.693 943.549 432.454V432.454ZM947.027 431.796C946.748 431.066 946.54 429.909 946.566 429.225C946.598 428.401 946.855 428.589 947.33 429.781C947.724 430.771 947.931 431.928 947.79 432.352C947.649 432.777 947.306 432.526 947.027 431.796ZM1004.43 432.498C1004.43 432.317 1004.77 431.962 1005.18 431.708C1005.59 431.455 1005.92 431.603 1005.92 432.037C1005.92 432.471 1005.59 432.827 1005.18 432.827C1004.77 432.827 1004.43 432.679 1004.43 432.498ZM814.534 429.367C814.021 429.15 813.79 428.665 814.021 428.29C814.588 427.369 819.347 427.42 819.921 428.354C820.174 428.764 819.943 429.104 819.408 429.109C818.874 429.115 817.768 429.264 816.951 429.441C816.135 429.617 815.047 429.584 814.534 429.367V429.367ZM825.557 428.807C824.208 427.175 825.763 426.678 829.261 427.624C832.785 428.576 832.773 428.725 829.12 429.387C827.223 429.731 826.18 429.561 825.557 428.807V428.807ZM937.039 428.354C936.525 427.528 936.434 426.863 936.834 426.863C937.232 426.863 937.914 427.534 938.352 428.354C938.789 429.174 938.881 429.845 938.556 429.845C938.232 429.845 937.549 429.174 937.039 428.354V428.354ZM941.689 427.604C939.704 425.401 940.766 425.055 942.809 427.238C943.767 428.262 944.21 429.099 943.794 429.099C943.377 429.099 942.43 428.426 941.689 427.604V427.604ZM802.472 427.474C799.818 427.105 796.075 426.285 794.155 425.653C792.236 425.02 789.974 424.723 789.129 424.992C787.429 425.534 780.197 423.4 780.197 422.356C780.197 419.973 786.854 419.792 790.391 422.079C791.711 422.933 792.752 422.99 795.544 422.361C798.637 421.666 799.282 421.751 801.099 423.1C802.23 423.94 803.491 424.626 803.902 424.626C805.37 424.626 809.827 427.12 809.451 427.731C809.24 428.073 808.669 428.307 808.183 428.25C807.697 428.193 805.127 427.844 802.472 427.474V427.474ZM935.753 423.881C935.014 423.061 934.743 422.39 935.151 422.39C935.56 422.39 936.499 423.061 937.238 423.881C937.977 424.701 938.248 425.372 937.839 425.372C937.431 425.372 936.492 424.701 935.753 423.881ZM931.07 422.937C930.648 422.426 930.088 421.004 929.826 419.776C929.402 417.799 929.45 417.714 930.241 419.035C930.732 419.855 931.611 421.08 932.193 421.757C932.809 422.474 932.956 423.17 932.544 423.426C932.155 423.667 931.492 423.447 931.07 422.937ZM915.345 420.566L913.501 419.541L916.36 419.002C917.933 418.706 920.35 417.467 921.732 416.249C923.24 414.92 924.239 414.438 924.232 415.044C924.215 416.56 923.302 417.728 920.527 419.784C917.628 421.931 917.764 421.911 915.345 420.566V420.566ZM776.062 417.664C773.334 416.103 768.414 410.067 766.812 406.314C765.948 404.29 763.968 400.957 762.411 398.907C760.855 396.857 759.069 394.173 758.442 392.943C757.815 391.713 755.91 389.365 754.209 387.725C750.623 384.267 748.418 380.633 749.921 380.659C751.869 380.693 756.885 383.493 759.036 385.747C764.97 391.967 766.186 393.074 768.987 394.807C771.691 396.479 772.971 398.22 773.099 400.398C773.124 400.808 773.892 401.982 774.808 403.007C775.724 404.032 777.451 405.96 778.647 407.291C779.842 408.623 781.037 410.7 781.301 411.907C782.165 415.859 778.996 419.342 776.062 417.664V417.664ZM626.498 417.171C626.498 416.761 626.832 416.426 627.24 416.426C627.649 416.426 627.983 416.761 627.983 417.171C627.983 417.581 627.649 417.917 627.24 417.917C626.832 417.917 626.498 417.581 626.498 417.171ZM822.887 417.165C822.633 416.751 822.631 415.76 822.88 414.962C823.132 414.164 822.826 412.726 822.197 411.763C821.163 410.179 821.173 409.847 822.302 408.228C822.987 407.246 823.796 404.608 824.099 402.367C824.473 399.601 825.211 397.728 826.395 396.538C828.016 394.911 828.423 394.839 832.066 395.533C835.194 396.128 836.425 396.055 838.127 395.171C840.978 393.69 841.187 393.756 840.24 395.843C839.036 398.495 836.631 399.343 834.095 398.009C829.567 395.627 823.56 399.167 826.729 402.349C827.894 403.519 828.539 403.625 830.697 403.004C834.396 401.939 835.854 402.134 833.557 403.387C830.957 404.806 830.464 406.38 831.804 408.981C832.414 410.165 832.912 412.001 832.912 413.06C832.912 414.757 832.735 414.892 831.426 414.189C830.609 413.75 829.429 412.163 828.806 410.664C827.68 407.959 827.66 407.949 826.219 409.396C824.955 410.665 824.87 411.228 825.562 413.743C826.187 416.015 826.145 416.767 825.365 417.263C824.053 418.098 823.444 418.074 822.884 417.165H822.887ZM924.76 413.189C924.06 412.116 922.457 410.704 921.198 410.05C919.939 409.396 919.075 408.693 919.28 408.488C920.434 407.329 926.877 412.594 926.328 414.248C926.159 414.756 925.486 414.301 924.76 413.189ZM808.159 410.707C807.039 410.118 805.53 409.825 804.805 410.056C802.958 410.644 795.62 409.145 794.894 408.03C794.315 407.144 792.614 401.682 791.704 397.789C791.454 396.718 791.704 395.33 792.289 394.526C793.139 393.36 793.578 393.272 794.924 393.995C796.344 394.758 796.645 394.628 797.424 392.911C797.911 391.838 799.533 390.334 801.027 389.568C802.61 388.757 804.131 387.24 804.67 385.933C805.292 384.426 806.427 383.414 808.126 382.851C809.518 382.39 811.528 380.866 812.593 379.464C813.658 378.062 814.925 376.915 815.409 376.915C815.893 376.915 817.358 378.023 818.664 379.376L821.04 381.837L819.136 384.408C816.972 387.329 817.086 389.841 819.537 393.298L821.021 395.39L819.172 396.607C818.155 397.276 817.324 398.235 817.326 398.738C817.333 400.445 812.574 410.287 811.382 411.035C810.551 411.556 809.585 411.457 808.159 410.707V410.707ZM851.292 410.694C849.756 410.291 849.543 408.971 851.014 408.971C851.576 408.971 853.147 409.194 854.506 409.467C856.599 409.888 856.755 410.051 855.527 410.533C853.915 411.166 853.198 411.194 851.292 410.694V410.694ZM969.537 401.188C969.537 401.007 969.871 400.651 970.279 400.398C970.688 400.145 971.022 400.293 971.022 400.727C971.022 401.161 970.688 401.516 970.279 401.516C969.871 401.516 969.537 401.368 969.537 401.188ZM848.691 399.166C848.098 398.57 848.063 397.879 848.577 396.914C848.985 396.148 849.121 395.2 848.879 394.807C848.21 393.719 849.887 391.08 851.248 391.08C852.34 391.08 852.335 391.208 851.2 392.466C850.219 393.555 850.11 394.275 850.693 395.814C851.872 398.927 850.59 401.072 848.691 399.166H848.691ZM475.769 396.715C475.769 396.534 476.103 396.179 476.511 395.925C476.919 395.672 477.254 395.82 477.254 396.254C477.254 396.688 476.919 397.043 476.511 397.043C476.103 397.043 475.769 396.895 475.769 396.715ZM990.698 394.807C990.446 394.397 990.593 394.061 991.026 394.061C991.458 394.061 991.812 394.397 991.812 394.807C991.812 395.217 991.665 395.552 991.485 395.552C991.305 395.552 990.951 395.217 990.698 394.807ZM480.224 387.769C480.224 387.588 480.558 387.233 480.966 386.979C481.375 386.726 481.709 386.874 481.709 387.308C481.709 387.742 481.375 388.098 480.966 388.098C480.558 388.098 480.224 387.95 480.224 387.769ZM837.378 376.56C835.962 373.243 835.773 373.094 833.593 373.575C831.421 374.054 831.345 373.995 832.159 372.468C832.833 371.204 833.458 370.953 835.055 371.305C836.595 371.644 837.579 371.301 839.087 369.897C840.185 368.876 841.09 367.438 841.099 366.701C841.122 364.819 843.88 371.129 844.509 374.503C844.987 377.064 844.927 377.204 843.767 376.239C842.044 374.806 840.386 376.292 841.799 378.002C842.363 378.684 842.435 379.152 841.977 379.152C841.552 379.152 840.679 379.354 840.036 379.602C839.174 379.934 838.478 379.137 837.378 376.56V376.56ZM701.997 377.878C701.167 376.524 700.695 370.449 701.295 368.837C701.931 367.127 701.979 367.148 703.87 369.955C706.137 373.319 706.863 375.477 706.115 376.628C705.399 377.731 702.455 378.624 701.997 377.878ZM867.813 374.021C867.813 373.611 868.147 373.069 868.556 372.815C868.964 372.562 869.298 372.69 869.298 373.1C869.298 373.51 868.964 374.053 868.556 374.306C868.147 374.56 867.813 374.431 867.813 374.021ZM984.387 373.933C984.387 373.523 984.534 373.188 984.715 373.188C984.895 373.188 985.248 373.523 985.501 373.933C985.753 374.343 985.606 374.679 985.173 374.679C984.741 374.679 984.387 374.343 984.387 373.933ZM815.838 369.626C815.838 369.308 817.326 367.379 819.146 365.34C821.812 362.352 822.46 361.93 822.487 363.165C822.505 364.007 821.389 365.936 820.007 367.451C817.663 370.02 815.838 370.973 815.838 369.626V369.626ZM831.92 367.637C831.649 366.93 831.704 365.855 832.042 365.249C832.565 364.311 832.783 364.302 833.515 365.188C834.172 365.982 834.143 366.547 833.393 367.576C832.473 368.84 832.381 368.844 831.92 367.637V367.637ZM263.314 364.733C263.769 364.182 263.921 363.511 263.652 363.242C263.383 362.972 263.856 362.751 264.703 362.751C265.877 362.751 266.15 363.105 265.854 364.242C265.628 365.108 264.841 365.733 263.976 365.733C262.814 365.733 262.669 365.513 263.314 364.733ZM836.902 364.535C836.625 363.759 836.264 362.872 836.098 362.565C835.933 362.257 836.112 362.006 836.497 362.006C837.238 362.006 838.281 365.067 837.73 365.621C837.551 365.8 837.179 365.311 836.902 364.535V364.535ZM829.378 362.59C828.335 361.329 829.351 359.533 830.911 359.882C831.889 360.101 831.924 360.412 831.14 361.87C830.383 363.277 830.056 363.411 829.378 362.59V362.59ZM838.156 360.028C837.304 358.941 836.731 357.926 836.882 357.774C837.486 357.168 839.574 358.503 840.684 360.205C842.392 362.821 840.226 362.67 838.156 360.028ZM825.95 357.142C825.289 356.478 824.748 355.549 824.748 355.077C824.748 354.606 825.481 354.956 826.377 355.855C827.273 356.755 827.814 357.684 827.579 357.92C827.344 358.156 826.611 357.806 825.95 357.142ZM243.116 357.036C242.844 356.762 242.621 356.192 242.621 355.769C242.621 355.301 242.967 355.345 243.499 355.88C243.983 356.366 244.205 356.936 243.994 357.148C243.783 357.359 243.388 357.309 243.116 357.036V357.036ZM238.908 356.042C238.908 355.632 239.056 355.296 239.236 355.296C239.416 355.296 239.77 355.632 240.022 356.042C240.274 356.452 240.127 356.787 239.695 356.787C239.262 356.787 238.908 356.452 238.908 356.042ZM273.806 354.551C273.806 354.141 273.954 353.805 274.134 353.805C274.314 353.805 274.668 354.141 274.92 354.551C275.172 354.961 275.025 355.296 274.593 355.296C274.16 355.296 273.806 354.961 273.806 354.551ZM833.418 354.437C832.674 354.016 831.263 353.873 830.282 354.12C828.845 354.482 827.854 353.902 825.162 351.122C821.36 347.194 820.621 345.538 821.737 343.446C822.168 342.637 822.52 340.967 822.52 339.734C822.52 335.688 825.22 335.851 827.199 340.018C828.295 342.326 828.302 342.822 827.272 345.297C826.162 347.963 826.184 348.082 828.163 350.155C829.592 351.653 830.664 352.162 831.794 351.877C832.749 351.636 833.778 351.935 834.34 352.614C835.677 354.232 835.094 355.386 833.418 354.437H833.418ZM269.351 349.749C269.351 349.568 269.685 349.213 270.094 348.96C270.502 348.706 270.836 348.854 270.836 349.289C270.836 349.723 270.502 350.078 270.094 350.078C269.685 350.078 269.351 349.93 269.351 349.749V349.749ZM385.925 347.096C385.925 346.686 386.259 346.351 386.668 346.351C387.076 346.351 387.41 346.686 387.41 347.096C387.41 347.506 387.076 347.842 386.668 347.842C386.259 347.842 385.925 347.506 385.925 347.096ZM267.124 344.202C267.124 343.792 267.458 343.249 267.866 342.996C268.275 342.742 268.609 342.871 268.609 343.281C268.609 343.691 268.275 344.233 267.866 344.487C267.458 344.74 267.124 344.612 267.124 344.202ZM260.818 341.141C260.557 340.718 260.856 340.593 261.516 340.848C262.803 341.343 263.038 341.878 261.97 341.878C261.586 341.878 261.067 341.546 260.818 341.141ZM378.871 341.132C378.619 340.722 378.766 340.387 379.199 340.387C379.631 340.387 379.985 340.722 379.985 341.132C379.985 341.542 379.838 341.878 379.658 341.878C379.477 341.878 379.124 341.542 378.871 341.132V341.132ZM263.782 339.641C263.53 339.231 263.677 338.896 264.11 338.896C264.542 338.896 264.896 339.231 264.896 339.641C264.896 340.051 264.749 340.387 264.569 340.387C264.389 340.387 264.035 340.051 263.782 339.641ZM267.124 339.641C267.124 339.231 267.271 338.896 267.451 338.896C267.631 338.896 267.985 339.231 268.237 339.641C268.49 340.051 268.342 340.387 267.91 340.387C267.477 340.387 267.124 340.051 267.124 339.641ZM216.076 337.657C215.566 337.45 215.148 336.973 215.148 336.597C215.148 335.522 218.426 335.799 220.018 337.008C221.387 338.048 221.348 338.101 219.232 338.068C218.007 338.048 216.587 337.863 216.076 337.657V337.657ZM234.865 337.234C234.199 336.859 232.728 336.758 231.595 337.007C230.463 337.257 228.722 337.134 227.726 336.734C226.124 336.09 226.266 336.015 228.952 336.078C232.899 336.17 233.953 335.525 232.944 333.632C232.228 332.289 232.443 332.186 235.986 332.186C239.412 332.186 244.355 333.764 245.193 335.125C245.75 336.03 236.194 337.981 234.865 337.234ZM249.107 337.705C248.227 336.822 249.321 335.914 251.265 335.914C252.433 335.914 253.024 336.265 252.834 336.846C252.492 337.889 249.889 338.49 249.107 337.705ZM786.295 336.52C784.329 334.546 786.275 332.186 789.869 332.186C791.463 332.186 791.464 332.199 790.097 334.549C788.503 337.289 787.552 337.782 786.295 336.52ZM255.243 336.366C255.243 336.205 255.745 335.88 256.357 335.644C256.97 335.408 257.471 335.54 257.471 335.937C257.471 336.334 256.97 336.659 256.357 336.659C255.745 336.659 255.243 336.527 255.243 336.366V336.366ZM223.146 331.023C222.917 330.792 221.35 330.585 219.663 330.562C217.337 330.529 216.778 330.3 217.349 329.609C217.901 328.942 217.109 328.053 214.379 326.278C209.027 322.796 206.038 322.115 202.443 323.56C199.071 324.914 198.813 324.952 198.813 324.099C198.813 322.539 204.722 320.823 208.977 321.148C213.047 321.458 215.325 322.328 223.316 326.62C229.883 330.147 229.891 330.154 227.771 330.761C225.363 331.45 223.668 331.546 223.146 331.023V331.023ZM228.513 324.732C229.953 323.798 230.741 323.798 230.741 324.732C230.741 325.142 229.989 325.472 229.07 325.466C227.719 325.456 227.613 325.316 228.513 324.732ZM819.847 323.41C819.398 323.112 818.625 322.096 818.13 321.153C817.384 319.731 817.461 319.04 818.583 317.112C820.314 314.135 821.484 313.764 822.046 316.012C822.637 318.378 820.928 324.126 819.847 323.41V323.41ZM233.388 322.416C233.884 321.611 236.681 321.52 236.68 322.309C236.68 322.616 235.847 322.916 234.829 322.975C233.811 323.034 233.163 322.782 233.388 322.416V322.416ZM218.705 315.231C217.518 313.863 217.691 312.058 219.009 312.058C219.431 312.058 219.606 312.713 219.397 313.514C219.189 314.314 219.4 315.107 219.868 315.275C220.335 315.444 220.52 315.797 220.279 316.061C220.038 316.325 219.33 315.951 218.705 315.231V315.231ZM223.019 309.375C222.754 308.683 222.705 307.95 222.909 307.745C223.114 307.54 223.497 307.938 223.761 308.629C224.025 309.321 224.075 310.054 223.87 310.259C223.666 310.464 223.283 310.066 223.019 309.375ZM218.366 308.704C218.366 308.089 219.002 307.585 219.78 307.585C221.037 307.585 221.07 307.71 220.08 308.704C219.468 309.319 218.831 309.822 218.666 309.822C218.501 309.822 218.366 309.319 218.366 308.704V308.704ZM841.083 292.36C841.083 291.777 840.272 290.331 839.28 289.149C836.927 286.341 837.761 284.467 840.548 286.3C842.551 287.618 843.598 290.31 842.859 292.244C842.299 293.71 841.083 293.79 841.083 292.36V292.36ZM264.896 287.874C264.896 287.693 265.23 287.338 265.639 287.085C266.047 286.831 266.381 286.979 266.381 287.413C266.381 287.848 266.047 288.203 265.639 288.203C265.23 288.203 264.896 288.055 264.896 287.874ZM845.221 286.958C844.74 285.698 845.876 284.508 847.58 284.487C848.76 284.472 848.782 286.139 847.617 287.308C846.406 288.524 845.785 288.433 845.221 286.958ZM852.005 284.237C850.563 282.028 848.527 281.725 843.865 283.024C841.969 283.553 840.663 283.559 839.781 283.043C839.068 282.626 838.876 282.274 839.355 282.262C839.834 282.249 841.233 281.389 842.463 280.349C844.051 279.008 845.214 278.589 846.468 278.905C847.797 279.24 849.231 278.599 852.249 276.323C858.123 271.891 858.654 270.494 856.264 265.759C853.97 261.214 854.61 259.751 858.008 261.767C860.482 263.234 862.813 267.436 862.136 269.208C861.892 269.846 862.256 271.847 862.943 273.656C863.917 276.214 864.009 277.29 863.36 278.509C862.406 280.298 859.752 281.494 856.735 281.494C855.044 281.494 854.538 281.929 853.986 283.864L853.309 286.234L852.005 284.237V284.237ZM551.207 281.692C550.321 280.802 550.793 280.003 552.203 280.003C552.996 280.003 553.851 279.667 554.103 279.257C554.793 278.136 555.971 278.361 555.524 279.529C555.066 280.727 551.851 282.339 551.207 281.692ZM525.888 280.402L523.66 279.378L526.63 279.328C530.33 279.265 533.055 279.962 532.518 280.833C531.921 281.803 528.444 281.577 525.888 280.402V280.402ZM495.893 272.966C492.922 271.438 492.782 271.248 494.333 270.84C496.191 270.353 500.303 270.96 500.219 271.709C500.191 271.965 499.94 272.731 499.662 273.409C499.206 274.525 498.845 274.483 495.893 272.966V272.966ZM481.011 264.9C480.368 263.05 480.419 262.341 481.254 261.503C482.763 259.987 483.936 261.052 483.936 263.939C483.936 267.348 482.073 267.961 481.011 264.9V264.9ZM463.599 265.52C464.126 264.142 466.385 263.909 465.931 265.279C465.761 265.792 465.066 266.319 464.386 266.452C463.525 266.62 463.287 266.337 463.599 265.52V265.52ZM851.562 257.011C850.203 255.094 850.165 254.741 851.169 253.302C852.155 251.889 852.151 251.466 851.136 249.494C849.465 246.251 849.7 246.055 852.597 248.273C854.028 249.369 856.854 250.76 858.876 251.363C863.054 252.608 864.062 253.586 861.884 254.28C861.061 254.542 860.388 255.244 860.388 255.839C860.388 256.65 859.876 256.79 858.346 256.397C854.429 255.39 853.315 255.636 853.567 257.452C853.875 259.677 853.374 259.567 851.562 257.011H851.562ZM482.204 257.887C481.342 257.022 481.667 255.577 482.822 255.132C483.627 254.822 483.936 255.214 483.936 256.543C483.936 258.333 483.209 258.896 482.204 257.887ZM846.85 242.169C846.22 241.452 844.702 238.851 843.476 236.391C842.25 233.93 839.01 229.411 836.275 226.348C833.219 222.927 831.666 220.658 832.247 220.464C832.767 220.29 833.882 221.069 834.724 222.196C836.767 224.927 839.283 227.299 843.252 230.236C846.542 232.67 848.169 234.923 846.046 234.105C843.598 233.162 844.209 235.401 847.377 238.982C849.224 241.07 850.736 242.935 850.736 243.126C850.736 244.033 847.866 243.326 846.85 242.169ZM303.507 240.865C303.507 240.25 303.83 239.747 304.226 239.747C304.621 239.747 304.753 240.25 304.518 240.865C304.282 241.48 303.959 241.983 303.798 241.983C303.638 241.983 303.507 241.48 303.507 240.865ZM299.627 238.459L296.86 238.168L302.066 232.993C304.929 230.147 307.645 227.819 308.103 227.819C308.585 227.819 308.441 228.367 307.758 229.124C306.212 230.839 307.266 232.765 310.091 233.388C311.324 233.66 312.553 234.609 313.028 235.656C313.791 237.336 313.661 237.507 311.089 238.224C308.39 238.977 305.169 239.043 299.627 238.459V238.459ZM118.7 233.111C116.128 230.699 115.841 229.682 117.547 229.025C119.074 228.437 121.894 230.355 122.962 232.71C124.084 235.181 124.064 235.274 122.413 235.274C121.639 235.274 119.969 234.3 118.7 233.111ZM445.697 229.323C446.514 228.919 448.121 228.248 449.269 227.832C451.797 226.916 451.378 225.94 448.18 225.298C445.986 224.858 445.909 224.746 447.164 223.824C447.911 223.276 448.305 222.473 448.039 222.041C447.767 221.599 448.531 220.913 449.782 220.475C451.006 220.047 452.008 219.365 452.008 218.96C452.008 217.239 450.461 214.342 449.601 214.455C447.619 214.714 446.7 214.363 447.02 213.468C447.203 212.956 447.052 211.949 446.684 211.232C445.729 209.366 447.925 205.508 449.966 205.466C450.273 205.46 450.44 205.866 450.338 206.369C450.236 206.871 450.936 207.402 451.895 207.548L453.637 207.814L451.972 209.593L450.307 211.373L452.184 212.089C454.199 212.858 456.141 215.364 458.118 219.746C459.066 221.845 459.689 222.394 460.794 222.104C463.064 221.508 463.333 223.052 461.204 224.452C459.762 225.401 459.488 225.935 460.12 226.57C460.751 227.204 459.506 227.629 455.187 228.255C452.009 228.716 448.24 229.31 446.811 229.576C444.823 229.945 444.561 229.886 445.697 229.323V229.323ZM433.175 225.205C432.921 224.541 433.211 223.031 433.819 221.85C434.517 220.495 434.652 219.534 434.185 219.244C432.899 218.446 433.381 217.427 435.271 216.95C436.276 216.697 437.486 216.02 437.961 215.445C438.95 214.249 443.524 214.028 444.211 215.144C444.463 215.554 444.149 216.635 443.512 217.547C442.876 218.459 442.356 220.097 442.356 221.187C442.356 222.85 441.847 223.347 439.2 224.269C437.464 224.874 435.503 225.604 434.841 225.891C434.065 226.228 433.473 225.985 433.175 225.205V225.205ZM446.811 217.799C446.811 217.618 447.145 217.263 447.553 217.009C447.962 216.756 448.296 216.904 448.296 217.338C448.296 217.772 447.962 218.128 447.553 218.128C447.145 218.128 446.811 217.98 446.811 217.799ZM117.285 214.207C116.558 213.327 116.604 212.917 117.517 212.156C119.026 210.899 119.774 211.752 118.896 213.728C118.29 215.091 118.07 215.156 117.285 214.207V214.207ZM116.124 208.6C115.873 208.193 116.166 207.445 116.774 206.939C117.981 205.933 118.233 206.722 117.218 208.33C116.831 208.944 116.401 209.05 116.124 208.6ZM68.1313 208.125C68.1313 207.601 70.3827 206.683 73.5767 205.906C74.7875 205.612 75.5033 205.683 75.2628 206.074C75.0329 206.447 73.9189 206.94 72.7874 207.17C71.6559 207.399 70.1453 207.814 69.4307 208.091C68.716 208.369 68.1313 208.384 68.1313 208.125V208.125ZM509.367 199.742C507.997 199.187 508.24 198.332 509.8 198.214C510.549 198.157 511.162 198.589 511.162 199.174C511.162 200.283 510.904 200.365 509.367 199.742ZM346.201 195.932C341.502 193.36 339.256 189.407 340.618 186.107C341.262 184.545 341.282 183.563 340.691 182.455C339.461 180.148 341.065 177.445 345.168 174.911C347.116 173.707 349.062 172.063 349.491 171.258C350.681 169.026 349.621 165.203 347.551 164.256C346.504 163.777 345.934 163.019 346.165 162.413C346.692 161.034 344.22 156.324 341.758 154.016C339.946 152.318 339.166 152.148 332.961 152.108C324.512 152.052 322.938 151.581 323.077 149.146C323.136 148.135 323.359 147.308 323.574 147.307C323.789 147.307 326.796 146.957 330.256 146.53C334.675 145.984 338.636 144.859 343.561 142.75C351.186 139.485 351.767 139.422 369.961 139.851C375.706 139.987 380.992 139.56 387.781 138.412C394.104 137.343 398.757 136.94 401.269 137.243C403.404 137.501 406.495 137.331 408.239 136.859C412.289 135.765 422.81 137.082 426.948 139.201C429.394 140.454 430.688 140.62 434.816 140.207C439.275 139.761 439.612 139.82 438.272 140.808C437.455 141.41 434.949 142.146 432.703 142.443C427.829 143.087 423.351 146.575 424.538 148.802C425.05 149.763 424.683 150.583 423.027 152.175C421.824 153.332 420.664 154.836 420.449 155.516C419.932 157.152 413.368 160.195 410.113 160.309C406.498 160.435 406.12 161.206 408.915 162.752C410.236 163.483 412.164 164.727 413.199 165.518L415.082 166.955L413.38 167.587C412.075 168.072 411.017 167.76 408.845 166.249C405.899 164.199 402.728 164.188 404.42 166.234C405.079 167.032 404.921 167.342 403.686 167.666C400.927 168.391 402.879 169.823 405.922 169.307C407.859 168.979 408.948 169.152 409.553 169.884C410.274 170.756 409.334 171.16 403.926 172.301C400.355 173.055 395.596 173.699 393.35 173.732C389.178 173.795 386.171 174.998 381.747 178.373C380.305 179.474 377.24 180.565 373.653 181.254C366.156 182.694 363.622 184.359 359.105 190.817C355.477 196.004 353.289 197.937 351.027 197.956C350.415 197.961 348.243 197.05 346.201 195.932V195.932ZM293.554 190.946C291.959 189.963 290.005 188.128 289.211 186.869C287.662 184.412 286.233 184.1 282.05 185.305C280.634 185.712 279.044 185.752 278.409 185.395C276.21 184.159 280.182 182.944 284.605 183.499C287.969 183.921 288.716 183.801 289.109 182.774C289.897 180.712 293.504 179.234 295.51 180.152C296.744 180.717 297.867 180.701 299.444 180.097C301.565 179.284 301.595 179.21 300.209 178.189C299.416 177.604 298.511 177.126 298.198 177.126C297.885 177.126 296.755 175.629 295.687 173.798C294.618 171.968 292.616 169.77 291.237 168.914C288.893 167.46 288.583 167.435 286.487 168.523C284.654 169.474 283.596 169.541 280.696 168.887C278.744 168.447 276.019 168.299 274.641 168.558C272.249 169.007 267.866 167.832 267.866 166.741C267.866 164.738 274.155 160.242 277.89 159.575L280.86 159.044L278.737 161.315C275.808 164.448 276.91 165.89 280.09 163.086C281.439 161.897 283.77 160.693 285.271 160.41C287.564 159.978 288.546 160.26 291.425 162.175C295.256 164.722 295.551 164.79 297.711 163.63C299.012 162.931 299.495 163.123 300.907 164.901C301.884 166.132 304.067 167.471 306.195 168.147C309.586 169.225 309.818 169.459 309.818 171.808C309.818 173.569 310.324 174.68 311.515 175.535C316.498 179.113 316.389 178.965 315.311 180.699C313.832 183.075 312.665 183.247 309.393 181.572C307.117 180.406 306.123 180.246 304.977 180.862C303.574 181.615 303.56 181.776 304.688 183.967C305.615 185.766 305.699 186.674 305.07 188.061C304.294 189.77 304.17 189.797 302.064 188.703C297.924 186.554 295.135 187.968 298.998 190.259C300.208 190.977 301.03 191.838 300.824 192.173C300.104 193.341 296.431 192.721 293.554 190.946V190.946ZM446.068 191.912C446.068 191.57 446.569 191.29 447.182 191.29C447.795 191.29 448.296 191.57 448.296 191.912C448.296 192.253 447.795 192.533 447.182 192.533C446.569 192.533 446.068 192.253 446.068 191.912ZM265.557 187.902C264.094 187.13 262.957 187.064 260.907 187.632C257.421 188.598 256.203 187.891 257.971 185.929C260.235 183.417 261.771 182.923 264.502 183.828C267.575 184.846 268.94 186.36 268.11 187.832C267.582 188.771 267.221 188.781 265.557 187.902V187.902ZM413.027 187.563C411.801 186.754 410.242 186.269 409.561 186.485C408.624 186.783 408.416 186.525 408.703 185.42C409.145 183.724 415.669 181.276 417.874 181.979C418.643 182.224 420.608 182.022 422.242 181.531C424.805 180.76 425.485 180.818 427.218 181.958L429.225 183.279L427.437 184.678C425.928 185.858 423.129 186.883 416.368 188.729C415.755 188.897 414.252 188.372 413.027 187.563V187.563ZM211.435 173.647C210.415 173.485 207.927 172.608 205.909 171.698L202.238 170.044L207.394 169.671C210.229 169.466 212.549 168.963 212.549 168.553C212.549 168.143 210.544 167.628 208.094 167.408C204.859 167.118 204.249 166.914 205.867 166.663C208.575 166.242 208.77 165.064 206.238 164.422C204.414 163.96 204.428 163.932 206.993 162.822C211.438 160.899 216.173 160.531 220.368 161.781C223.812 162.808 224.351 162.804 225.974 161.736C227.123 160.98 227.804 160.854 227.863 161.385C227.914 161.842 227.998 162.608 228.049 163.086C228.221 164.701 229.703 164.492 231.47 162.604C233.106 160.855 235.942 160.017 235.935 161.285C235.934 161.592 235.273 162.929 234.468 164.256L233.002 166.669L235.399 167.924L237.795 169.179L233.86 170.982C230.31 172.609 229.582 172.702 226.4 171.935C223.314 171.192 222.429 171.277 219.32 172.615C215.809 174.126 215.069 174.223 211.435 173.647V173.647ZM241.215 173.121C240.544 172.31 240.821 171.911 242.554 171.19C243.76 170.688 245.491 170.521 246.418 170.817C248.026 171.329 247.989 171.41 245.545 172.717C242.426 174.384 242.271 174.399 241.215 173.121V173.121ZM446.068 169.671C447.508 168.737 448.296 168.737 448.296 169.671C448.296 170.081 447.544 170.412 446.625 170.405C445.274 170.396 445.168 170.256 446.068 169.671V169.671ZM582.319 167.603C578.522 166.098 578.6 166.18 579.705 164.844C580.222 164.219 580.353 163.697 579.996 163.684C579.64 163.671 580.017 163.153 580.834 162.533C581.65 161.914 582.324 161.17 582.331 160.88C582.357 159.777 585.38 156.869 587.516 155.892C588.741 155.332 591.916 154.7 594.57 154.489C597.224 154.277 600.78 153.889 602.471 153.627C604.271 153.348 605.738 153.462 606.009 153.902C606.535 154.758 605.531 155.121 599.768 156.161C594.049 157.192 590.612 158.8 588.348 161.501C585.963 164.347 585.883 166.143 588.073 167.678L589.744 168.848L587.516 168.814C586.291 168.796 583.952 168.251 582.319 167.603V167.603ZM193.433 165.442C192.236 164.239 192.509 163.978 198.254 160.82C204.985 157.12 208.368 156.629 214.406 158.475L217.747 159.496L213.292 160.383C209.648 161.108 201.927 163.701 195.83 166.246C195.208 166.505 194.134 166.145 193.433 165.442V165.442ZM247.076 164.477C247.076 164.08 246.157 163.226 245.034 162.578L242.992 161.402L245.726 161.833C247.669 162.14 248.636 161.957 249.067 161.202C249.581 160.304 254.306 158.507 256.191 158.493C256.507 158.491 256.249 159.494 255.616 160.723C254.126 163.617 247.076 166.715 247.076 164.477V164.477ZM258.636 162.3C257.572 160.572 264.838 157.897 267.924 158.88C270.174 159.597 268.67 160.829 264.747 161.484C262.991 161.777 261.004 162.252 260.331 162.54C259.657 162.828 258.895 162.72 258.636 162.3ZM282.345 156.811C277.445 156.419 273.344 156.014 273.232 155.91C272.568 155.291 274.224 153.278 276.006 152.537C277.758 151.808 278.566 151.905 280.965 153.131C283.303 154.325 284.81 154.524 289.153 154.21C292.081 153.998 295.423 154.065 296.579 154.359L298.68 154.893L296.081 156.287C294.652 157.054 292.981 157.645 292.369 157.602C291.756 157.558 287.246 157.202 282.345 156.811ZM496.023 153.764C492.375 151.889 492.023 151.039 494.888 151.023C496.011 151.017 497.431 150.649 498.044 150.207C499.007 149.512 498.994 149.455 497.949 149.787C497.284 149.999 496.351 149.782 495.876 149.305C495.219 148.645 494.877 148.657 494.448 149.354C494.051 149.999 493.236 150.075 491.695 149.611C487.779 148.434 486.906 147.911 486.906 146.744C486.906 145.756 487.888 145.665 493.96 146.094C498.585 146.42 501.014 146.33 501.014 145.831C501.014 144.363 503.074 145.088 503.62 146.748L504.172 148.425L504.501 146.748C504.682 145.825 505.308 145.07 505.892 145.07C506.476 145.07 506.954 144.668 506.954 144.176C506.954 143.48 507.152 143.48 507.845 144.176C508.363 144.696 510.848 145.07 513.785 145.07C519.094 145.07 520.34 146.023 516.8 147.375C514.96 148.077 511.76 147.878 508.253 146.844C507.539 146.633 506.956 146.735 506.959 147.07C506.964 147.758 511.136 150.289 512.265 150.289C512.669 150.289 513.469 150.759 514.042 151.335C514.936 152.232 514.928 152.44 513.989 152.802C513.387 153.034 512.894 152.862 512.894 152.419C512.894 151.898 511.95 151.792 510.222 152.117C508.351 152.469 507.703 152.373 508.059 151.795C508.338 151.34 508.163 150.48 507.67 149.883C506.717 148.731 503.984 148.379 503.984 149.408C503.984 149.743 502.898 151.223 501.571 152.697L499.158 155.375L496.023 153.764L496.023 153.764ZM299.052 152.124C297.764 151.365 295.943 151.145 293.111 151.407C290.465 151.651 288.429 151.441 287.327 150.808C285.808 149.936 286.179 149.836 290.817 149.874C296.615 149.921 299.162 148.675 296.022 147.327C294.53 146.686 294.747 146.628 297.305 146.984C300.643 147.448 301.941 146.55 300.122 145.034C298.182 143.418 300.315 142.916 307.217 143.365C311.487 143.643 314.171 143.487 315.268 142.898C317.369 141.769 316.545 140.331 314.143 140.936C312.483 141.355 300.961 140.668 301.447 140.18C301.795 139.831 318.118 138.313 328.836 137.633C334.395 137.281 340.577 136.789 342.572 136.54L346.201 136.088L340.211 138.976C334.595 141.685 325.463 144.325 321.711 144.325C320.798 144.325 318.172 145.331 315.877 146.561C313.581 147.791 311.242 148.798 310.679 148.798C310.116 148.798 307.688 149.8 305.282 151.025C302.876 152.25 300.908 153.244 300.908 153.235C300.908 153.225 300.072 152.726 299.052 152.124V152.124ZM284.573 145.313C280.974 144.514 280.842 144.213 283.487 142.837C287.341 140.831 290.989 140.317 292.647 141.546C293.96 142.519 293.884 142.669 291.305 144.196C288.618 145.788 287.527 145.969 284.573 145.313V145.313Z" fill="url(#paint1_linear)"/>
<defs>
<linearGradient id="paint0_linear" x1="540" y1="0" x2="540" y2="720" gradientUnits="userSpaceOnUse">
<stop stop-color="#2D178C"/>
<stop offset="1" stop-color="#2A1E5F"/>
</linearGradient>
<linearGradient id="paint1_linear" x1="539.656" y1="136.088" x2="539.656" y2="583.776" gradientUnits="userSpaceOnUse">
<stop stop-color="#311B92"/>
<stop offset="1" stop-color="#311B92" stop-opacity="0"/>
</linearGradient>
</defs>
</svg>
